<svg id="Ebene_1" xmlns="http://www.w3.org/2000/svg" width="357.1" height="103.5" viewBox="0 0 357.1 103.5"><style>.st0{display:none}.st1,.st2{stroke:#000;stroke-miterlimit:10}.st1{stroke-width:2;fill:#f07f05}.st2{fill:#182ea4}.st3{opacity:.42}.st4{fill:#fff}.st5,.st6{stroke:#000;stroke-miterlimit:10}.st5{fill:none}.st6{stroke-width:2;stroke-linecap:round;stroke-linejoin:round}.st6,.st7{fill:none}.st8,.st9{stroke:#000;stroke-miterlimit:10}.st8{stroke-width:2;stroke-linecap:round;fill:none}.st9{fill:url(#SVGID_1_)}.st10{fill:url(#SVGID_2_)}.st10,.st11{stroke:#000;stroke-miterlimit:10}.st12{enable-background:new}</style><g id="Wurm"><path id="körper_3_" class="st1" d="M153.7 14.8s4.8-1.3 10.7 8.2 1.3 19.5-.2 31.7-1.2 17.3 1.3 22.2c2.5 4.8 4.3 7.2 6.8 6.8s5.5-3.3 6.2-7.5-1.5-13.3-1-18.5.5-12.3 5.5-13.7c5-1.3 8 3.7 9.3 8.7s.7 12 2.8 18c2.2 6 5.8 8.8 9 9s7-1.5 8.2-8.3-.7-19.3-2.3-27.8c-1.7-8.5-2.2-22.7 1.8-29s8.5-11.3 16.3-8.8 13.7 6 17.2 11.7.5 7-1.5 7.8c-2 .8-16.7 1.8-19.3 5.5-2.7 3.7-4.5 14.3-4.3 21.2.2 6.8 1.8 16.2-.7 25s-4.5 12.2-8.7 14.5-7.7 3.7-12.2.2-5.3-7.7-8-11.7-5.8-6.8-6.7.3c-.8 7.2-1.5 12.2-5.7 15.7s-11.5 5.5-15.2 2-9.5-11.7-9.5-19.8 2.8-21.2 4.3-28.7 4-12.3 1.5-18.5-4.3-5.8-6.2-11.2.6-5 .6-5z"/><g id="flecken_1_"><path class="st2" d="M160 36.8s1.5-1.3 3.2-1.3 3.5 1.2 3.5 1.2L164.2 53s-2.7-3-4.5-1.8-2.8 2.7-2.8 2.7l3.1-17.1zM154.5 67.1s1.5-2 4-2.2 4.3 1.2 4.3 1.2.2 2.2 1.2 4.7 1.8 5 1.8 5-1.5-1-4.2.7-5.8 9.5-5.8 9.5-2.3-6.5-1.8-9.5.5-9.4.5-9.4zM169.3 81.9s-1.8 2-2.5 4.8.5 12 .5 12 5.2 1 7.5-.5 4.7-4.3 4.7-4.3-5.5-3-5.5-5.3.7-5.7.7-5.7-.7.8-2.8.3-2.6-1.3-2.6-1.3zM178.8 74.4s-.3 2 1.3 3.2c1.7 1.2 4.7-.3 4.7-.3l.5-1.3s-4.2-9.3-3.3-14.2c.8-4.8 2-9.5 3.2-11.5s3.3-4.7 3.3-4.7-2.8-3.3-6-1.7c-3.2 1.7-5 8.3-5 11.5s1 8 1.3 12.5 0 6.5 0 6.5zM187.3 75.8s1.8-7.8 3.3-9.8 3.2-2.7 3.2-2.7.7 6 2.3 8.7c1.7 2.7 2.3 3.8 2.3 3.8s-3 2.8-4 4.8-1.2 3.3-1.2 3.3-1.7-5.8-3.8-7l-2.1-1.1zM206.5 79.9s.2 2.3 1.8 5.2 5.3 4.2 5.3 4.2 3.5-2.2 4.8-7.2 1.8-11.8 1.8-11.8-2 .7-4.3-.8-3.5-3.5-3.5-3.5 1 4.8-1.5 8.5c-2.4 3.6-4.4 5.4-4.4 5.4zM210.8 45.1s.5 1.7 2.7 3 6.5 1 6.5 1 .7-8.8 1.8-11.8 2.2-5.5 2.2-5.5-4.7-1.3-8-4.8-4-5.8-4-7.7v-4.7s-2.7 8-2.8 12.7c-.2 4.7 0 10.8.7 13.5.6 2.6.9 4.3.9 4.3zM157.8 27.1s1.5-2.7 3-3.3 3.7.2 3.7.2-7-11.2-10.8-9.2c-3.9 2 4.1 12.3 4.1 12.3"/></g><g id="whiter_1_" class="st3"><path id="whitey1_1_" class="st4" d="M156 14.9s1.2 6.2 2.7 8.2 4.2 5.5 3.7 12.8-1 9.7-1.7 13.8c-.7 4.2-2.3 9.7-2.7 13-.3 3.3-1.8 12.7-.8 16.8s1.8 9 3.8 11.7 3.2 5 8 4.5 7.8-2.8 9.2-4.7c1.3-1.8 3-6.2 3.7-9.8.7-3.7-.3-7.8 2.7-8.8s5.5.8 7.7 3.8 3 8.2 6.5 11 6.5 3.5 10.2 1.5 6-6.8 7.3-11 2.7-7.8 3.7-8.8 1 2.5 1 2.5-3.7 13.5-5.2 15.5-7.8 7-11 6.5-6.5-.7-9.8-6.7-6.7-10.8-8-10.7-3.3 8.8-4.5 13-6.2 9.3-10.8 10.3c-4.7 1-11.7-2.8-14.2-8s-4.2-14.2-3.2-20.5 4.2-21.3 5.2-25.7 1.8-11.2.2-14.5c-1.7-3.3-5.2-8.2-6.2-11.2s-.8-4 .3-4.8c1-.7 2.2.3 2.2.3"/><path id="whitey2_1_" class="st4" d="M212.8 67.1s2.5 1 3.2-1.7c.7-2.7-2.5-15.5-2.5-17s-.8-10.7-.8-13.5-1.8-10.7-.2-13.5c1.7-2.8 2.2-7 5-9.5s10.7-6.3 10.7-6.3-3.8-1.2-7.8.3-7 4.7-8.5 8.5-3.2 12.3-3 15.8.5 9.3 1.7 15.8 2.2 10.2 2.2 14.2v6.9z"/></g><g id="flecken_outline_1_"><path class="st5" d="M160 36.8s1.5-1.3 3.2-1.3 3.5 1.2 3.5 1.2L164.2 53s-2.7-3-4.5-1.8-2.8 2.7-2.8 2.7l3.1-17.1zM154.5 67.1s1.5-2 4-2.2 4.3 1.2 4.3 1.2.2 2.2 1.2 4.7 1.8 5 1.8 5-1.5-1-4.2.7-5.8 9.5-5.8 9.5-2.3-6.5-1.8-9.5.5-9.4.5-9.4zM169.3 81.9s-1.8 2-2.5 4.8.5 12 .5 12 5.2 1 7.5-.5 4.7-4.3 4.7-4.3-5.5-3-5.5-5.3.7-5.7.7-5.7-.7.8-2.8.3-2.6-1.3-2.6-1.3zM178.8 74.4s-.3 2 1.3 3.2c1.7 1.2 4.7-.3 4.7-.3l.5-1.3s-4.2-9.3-3.3-14.2c.8-4.8 2-9.5 3.2-11.5s3.3-4.7 3.3-4.7-2.8-3.3-6-1.7c-3.2 1.7-5 8.3-5 11.5s1 8 1.3 12.5 0 6.5 0 6.5zM187.3 75.8s1.8-7.8 3.3-9.8 3.2-2.7 3.2-2.7.7 6 2.3 8.7c1.7 2.7 2.3 3.8 2.3 3.8s-3 2.8-4 4.8-1.2 3.3-1.2 3.3-1.7-5.8-3.8-7l-2.1-1.1zM206.5 79.9s.2 2.3 1.8 5.2 5.3 4.2 5.3 4.2 3.5-2.2 4.8-7.2 1.8-11.8 1.8-11.8-2 .7-4.3-.8-3.5-3.5-3.5-3.5 1 4.8-1.5 8.5c-2.4 3.6-4.4 5.4-4.4 5.4zM210.8 45.1s.5 1.7 2.7 3 6.5 1 6.5 1 .7-8.8 1.8-11.8 2.2-5.5 2.2-5.5-4.7-1.3-8-4.8-4-5.8-4-7.7v-4.7s-2.7 8-2.8 12.7c-.2 4.7 0 10.8.7 13.5.6 2.6.9 4.3.9 4.3zM157.8 27.1s1.5-2.7 3-3.3 3.7.2 3.7.2-7-11.2-10.8-9.2c-3.9 2 4.1 12.3 4.1 12.3"/></g><path id="mund_1_" class="st6" d="M243 18.4s-1.7 5-8.8 5.3c-6.8.3-9.7-3.3-9.7-3.3l-2.2 3 3-4.8"/><path id="körper_1_" class="st7" d="M153.7 14.8s4.8-1.3 10.7 8.2 1.3 19.5-.2 31.7-1.2 17.3 1.3 22.2c2.5 4.8 4.3 7.2 6.8 6.8s5.5-3.3 6.2-7.5-1.5-13.3-1-18.5.5-12.3 5.5-13.7c5-1.3 8 3.7 9.3 8.7s.7 12 2.8 18c2.2 6 5.8 8.8 9 9s7-1.5 8.2-8.3-.7-19.3-2.3-27.8c-1.7-8.5-2.2-22.7 1.8-29s8.5-11.3 16.3-8.8 13.7 6 17.2 11.7.5 7-1.5 7.8c-2 .8-16.7 1.8-19.3 5.5-2.7 3.7-4.5 14.3-4.3 21.2.2 6.8 1.8 16.2-.7 25s-4.5 12.2-8.7 14.5-7.7 3.7-12.2.2-5.3-7.7-8-11.7-5.8-6.8-6.7.3c-.8 7.2-1.5 12.2-5.7 15.7s-11.5 5.5-15.2 2-9.5-11.7-9.5-19.8 2.8-21.2 4.3-28.7 4-12.3 1.5-18.5-4.3-5.8-6.2-11.2.6-5 .6-5z"/><g id="brille_1_"><path class="st8" d="M221.2 11.1s-9-4-13.2-2.5c-2.3.8-2.8 2.2-2.8 2.2"/><radialGradient id="SVGID_1_" cx="226.328" cy="92.942" r="5.127" gradientTransform="matrix(1 0 0 -1 0 103.89)" gradientUnits="userSpaceOnUse"><stop offset="0" stop-color="#fff"/><stop offset=".259" stop-color="#fdfefe"/><stop offset=".411" stop-color="#f4f9fa"/><stop offset=".535" stop-color="#e6f1f4"/><stop offset=".644" stop-color="#d2e5ec"/><stop offset=".744" stop-color="#b8d6e1"/><stop offset=".836" stop-color="#98c3d3"/><stop offset=".921" stop-color="#73aec4"/><stop offset="1" stop-color="#4995b2"/></radialGradient><ellipse class="st9" cx="226.3" cy="10.9" rx="5.2" ry="5"/><radialGradient id="SVGID_2_" cx="235.578" cy="97.109" r="4.844" gradientTransform="matrix(1 0 0 -1 0 103.89)" gradientUnits="userSpaceOnUse"><stop offset="0" stop-color="#fff"/><stop offset=".259" stop-color="#fdfefe"/><stop offset=".411" stop-color="#f4f9fa"/><stop offset=".535" stop-color="#e6f1f4"/><stop offset=".644" stop-color="#d2e5ec"/><stop offset=".744" stop-color="#b8d6e1"/><stop offset=".836" stop-color="#98c3d3"/><stop offset=".921" stop-color="#73aec4"/><stop offset="1" stop-color="#4995b2"/></radialGradient><ellipse class="st10" cx="235.6" cy="6.8" rx="5" ry="4.7"/><ellipse class="st11" cx="228.3" cy="11.6" rx="1" ry=".7"/><ellipse transform="rotate(-23.001 235.507 8.314)" class="st11" cx="235.5" cy="8.3" rx="1" ry=".7"/></g><g class="st12"><path d="M24.9 50c2.1.5 3.6 1.5 4.6 2.9 1 1.4 1.5 3.1 1.5 5 0 2.9-1 5.2-2.9 6.9-1.9 1.7-4.9 2.5-8.9 2.5H8.4v-3H12v-26H8.4v-3h10.8c3.6 0 6.2.7 7.9 2 1.7 1.3 2.5 3.2 2.5 5.6 0 1.7-.4 3.1-1.2 4.3-.8 1.2-2 2.1-3.7 2.7v.1zm-5.6-1.1c4.4 0 6.6-1.8 6.6-5.5 0-1.9-.6-3.2-1.7-4-1.1-.8-2.9-1.2-5.3-1.2h-3.5v10.7h3.9zm0 15.4c2.6 0 4.6-.5 5.9-1.5 1.3-1 1.9-2.6 1.9-4.9 0-2.1-.6-3.6-1.8-4.6-1.2-1-3.1-1.5-5.7-1.5h-4.1v12.4h3.8zM50.5 47.1h-3v-3H54v20.1h3v3h-6.2l-.2-2.5h-.1c-1.7 2.1-3.9 3.1-6.6 3.1-2.1 0-3.7-.6-4.8-1.7-1.1-1.1-1.7-2.7-1.7-4.8V47.1h-3v-3H41v16.7c0 1.6.3 2.7 1 3.2.7.6 1.6.9 2.8.9 2.3 0 4.2-.9 5.6-2.8v-15zm-12.4-9.2c0-.8.2-1.4.7-1.9.5-.5 1.1-.7 1.8-.7.8 0 1.4.2 1.9.7.5.5.7 1.1.7 1.8 0 .8-.2 1.4-.7 1.8-.5.5-1.1.7-1.9.7-.7 0-1.3-.2-1.7-.7-.6-.4-.8-1-.8-1.7zm8.6 0c0-.8.2-1.4.7-1.9.5-.5 1.1-.7 1.8-.7.8 0 1.4.2 1.9.7.5.5.7 1.1.7 1.8 0 .8-.2 1.4-.7 1.8-.5.5-1.1.7-1.9.7-.7 0-1.3-.2-1.7-.7-.6-.4-.8-1-.8-1.7zM77.2 66.4c-1.9 1-4 1.5-6.2 1.5-3.2 0-5.7-1-7.6-3.1-1.9-2.1-2.8-5-2.8-8.8 0-3.9 1-6.9 2.9-9.1s4.5-3.3 7.6-3.3c2.2 0 4.2.5 6 1.4v5.7H74v-3.6c-.9-.4-1.9-.5-3.2-.5-2.2 0-3.9.7-4.9 2.1-1.1 1.4-1.6 3.6-1.6 6.7 0 3.2.6 5.6 1.7 7.2 1.1 1.5 2.8 2.3 5 2.3 2.1 0 4.2-.5 6.2-1.6v3.1zM83.7 34.7h-3v-3h6.5v15.2h.1c2.1-2.2 4.6-3.3 7.3-3.3 2 0 3.4.6 4.3 1.7.9 1.1 1.4 2.7 1.4 4.8v14.3h3v3h-8.9v-3h2.4V50.5c0-1.6-.3-2.6-.8-3.2-.6-.5-1.3-.8-2.3-.8-2.3 0-4.4 1.1-6.3 3.4v14.4h2.4v3h-8.9v-3h3V34.7zM123.4 62.9v3.2c-2 1.2-4.3 1.8-6.9 1.8-3.1 0-5.6-1-7.3-3.1-1.8-2.1-2.6-5-2.6-8.8 0-3.9.9-6.9 2.8-9.1 1.9-2.2 4.2-3.3 7-3.3 2.3 0 4.1.9 5.6 2.7 1.4 1.8 2.1 4.4 2.1 7.8v1.8h-13.8c.1 2.8.6 4.9 1.6 6.5 1 1.5 2.6 2.4 4.8 2.4 2.4 0 4.6-.6 6.7-1.9zm-3-9.8c0-2.3-.4-3.9-1.2-4.9s-2-1.6-3.5-1.6-2.7.5-3.7 1.6-1.6 2.7-1.8 4.9h10.2zM127.5 64.3h3V47.1h-3v-3h6.3l.2 3.3h.1c.8-1.3 1.6-2.2 2.5-2.8.9-.6 2-.9 3.3-.9.5 0 .9 0 1.2.1v3.7c-.6-.1-1.2-.2-1.8-.2-1.1 0-2.1.3-3 .8-.9.5-1.6 1.4-2.3 2.6v13.5h3.6v3h-10.1v-2.9z"/></g></g><g class="st12"><path d="M250.8 47.1h-3v-3h6.5v20.1h3v3h-6.2l-.2-2.5h-.1c-1.7 2.1-3.9 3.1-6.6 3.1-2.1 0-3.7-.6-4.8-1.7-1.1-1.1-1.7-2.7-1.7-4.8V47.1h-3v-3h6.5v16.7c0 1.6.3 2.7 1 3.2.7.6 1.6.9 2.8.9 2.3 0 4.2-.9 5.6-2.8v-15zm-12.5-9.2c0-.8.2-1.4.7-1.9.5-.5 1.1-.7 1.8-.7.8 0 1.4.2 1.9.7.5.5.7 1.1.7 1.8 0 .8-.2 1.4-.7 1.8-.5.5-1.1.7-1.9.7-.7 0-1.3-.2-1.7-.7-.6-.4-.8-1-.8-1.7zm8.6 0c0-.8.2-1.4.7-1.9.5-.5 1.1-.7 1.8-.7.8 0 1.4.2 1.9.7.5.5.7 1.1.7 1.8 0 .8-.2 1.4-.7 1.8-.5.5-1.1.7-1.9.7-.7 0-1.3-.2-1.7-.7-.6-.4-.8-1-.8-1.7zM260.2 64.3h3V47.1h-3v-3h6.3l.2 3.3h.1c.8-1.3 1.6-2.2 2.5-2.8.9-.6 2-.9 3.3-.9.5 0 .9 0 1.2.1v3.7c-.6-.1-1.2-.2-1.8-.2-1.1 0-2.1.3-3 .8-.9.5-1.6 1.4-2.3 2.6v13.5h3.6v3h-10.1v-2.9zM276.2 64.3h3V47.1h-3v-3h6.3l.2 3.1h.1c2.1-2.4 4.5-3.7 7.2-3.7 2.8 0 4.6 1.2 5.2 3.7h.1c2.1-2.5 4.6-3.7 7.3-3.7 2 0 3.4.6 4.3 1.7.9 1.1 1.4 2.7 1.4 4.8v14.3h3v3h-8.9v-3h2.4V50.5c0-1.6-.3-2.6-.8-3.2-.6-.5-1.3-.8-2.3-.8-2.1 0-4.1 1.1-6 3.3v14.5h2.4v3h-8.3v-3h2.4V50.5c0-1.6-.3-2.6-.8-3.2-.5-.5-1.3-.8-2.2-.8-2.3 0-4.3 1.2-6.2 3.7v14.1h2.4v3h-8.9v-3zM313.6 64.3h3V34.7h-3v-3h6.5v32.6h3v3h-9.5v-3zM343.2 62.9v3.2c-2 1.2-4.3 1.8-6.9 1.8-3.1 0-5.6-1-7.3-3.1s-2.6-5-2.6-8.8c0-3.9.9-6.9 2.8-9.1 1.9-2.2 4.2-3.3 7-3.3 2.3 0 4.1.9 5.6 2.7 1.4 1.8 2.1 4.4 2.1 7.8v1.8H330c.1 2.8.6 4.9 1.6 6.5 1 1.5 2.6 2.4 4.8 2.4 2.5 0 4.8-.6 6.8-1.9zm-3-9.8c0-2.3-.4-3.9-1.2-4.9-.8-1-2-1.6-3.5-1.6s-2.7.5-3.7 1.6-1.6 2.7-1.8 4.9h10.2z"/></g><path d="M244.7 86.1c-.6 0-1.2-.1-1.7-.4v-1.3h.8v.8c.3.1.6.1 1 .1s.8-.1.9-.2c.2-.2.3-.4.3-.6 0-.3-.1-.5-.3-.6-.2-.2-.6-.3-1-.5-.7-.2-1.1-.5-1.3-.8-.2-.3-.4-.6-.4-1 0-.5.2-.9.6-1.2.4-.3.9-.5 1.5-.5s1.1.1 1.6.4v1.3h-.8v-.8c-.2-.1-.5-.1-.8-.1-.4 0-.7.1-.8.2-.2.2-.3.4-.3.6 0 .2.1.4.3.6.2.1.5.3 1 .5.6.2 1.1.5 1.4.7.3.3.4.6.4 1.1 0 .5-.2.9-.6 1.2-.6.4-1.1.5-1.8.5zM252.1 84.9v.8c-.5.3-1.1.5-1.7.5-.8 0-1.4-.3-1.8-.8s-.7-1.3-.7-2.2c0-1 .2-1.7.7-2.3s1-.8 1.7-.8c.6 0 1 .2 1.4.7s.5 1.1.5 1.9v.5h-3.5c0 .7.2 1.2.4 1.6.3.4.7.6 1.2.6.7 0 1.3-.2 1.8-.5zm-.7-2.5c0-.6-.1-1-.3-1.2-.2-.3-.5-.4-.9-.4s-.7.1-.9.4-.4.7-.4 1.2h2.5zM253.1 85.3h.7V81h-.7v-.7h1.6v5h.7v.7H253v-.7zm.5-6.6c0-.2.1-.4.2-.5.1-.1.3-.2.5-.2s.3.1.5.2c.1.1.2.3.2.5s-.1.4-.2.5-.3.2-.5.2-.3-.1-.5-.2-.2-.4-.2-.5zM258.2 86.1c-.4 0-.8-.1-1-.3-.2-.2-.4-.5-.4-1V81h-.7v-.7h.7V79l.9-.2v1.5h1.3v.7h-1.3v3.7c0 .3.1.5.2.6.1.1.3.1.5.1s.5-.1.7-.2v.8c-.3.1-.6.1-.9.1zM266.5 84.4V86H262v-.7c.9-.8 1.7-1.5 2.3-2.3.6-.8.9-1.4.9-2 0-.4-.1-.6-.3-.8-.2-.2-.5-.3-.9-.3s-.8.1-1.2.3v1.1h-.8v-1.5c.7-.4 1.4-.6 2-.6.7 0 1.2.2 1.5.5.3.3.5.8.5 1.3 0 .6-.3 1.4-.9 2.1-.6.8-1.3 1.5-2.1 2.1h2.5v-.9h1zM267.5 82.7c0-1.1.2-2 .7-2.6s1.1-.9 1.9-.9c.7 0 1.3.3 1.8.9.4.6.7 1.4.7 2.5s-.2 1.9-.7 2.6c-.5.7-1.1 1-1.9 1-.8 0-1.4-.3-1.8-.9s-.7-1.6-.7-2.6zm.9-.1c0 .9.1 1.6.4 2.1.3.5.7.7 1.1.7.5 0 .9-.2 1.2-.7.3-.5.4-1.2.4-2.1 0-.9-.1-1.5-.4-2-.3-.5-.7-.7-1.2-.7s-.9.2-1.2.7c-.1.5-.3 1.1-.3 2zM274.8 86v-5.9h-1v-.7h1.9V86h-.9zM278.3 86v-5.9h-1v-.7h1.9V86h-.9zM282.9 85.3h.7V81h-.7v-.7h1.6v5h.7v.7h-2.4v-.7zm.5-6.6c0-.2.1-.4.2-.5.1-.1.3-.2.5-.2s.3.1.5.2c.1.1.2.3.2.5s-.1.4-.2.5-.3.2-.5.2-.3-.1-.5-.2-.2-.4-.2-.5zM286 85.3h.7V81h-.7v-.7h1.6v.8c.5-.6 1.1-.9 1.8-.9.5 0 .9.1 1.1.4.2.3.3.7.3 1.2v3.6h.7v.6h-2.2v-.7h.6v-3.5c0-.4-.1-.7-.2-.8-.1-.1-.3-.2-.6-.2-.6 0-1.1.3-1.6.9v3.5h.6v.8H286v-.7zM298.6 81.7c.5.1.9.4 1.2.7s.4.8.4 1.3c0 .7-.2 1.3-.7 1.7-.5.4-1.2.6-2.2.6h-2.7v-.7h.9v-6.5h-.9V78h2.7c.9 0 1.5.2 2 .5.4.3.6.8.6 1.4 0 .4-.1.8-.3 1.1-.3.3-.6.5-1 .7zm-1.4-.3c1.1 0 1.7-.5 1.7-1.4 0-.5-.1-.8-.4-1s-.7-.3-1.3-.3h-.9v2.7h.9zm0 3.9c.7 0 1.2-.1 1.5-.4s.5-.7.5-1.2-.2-.9-.5-1.1c-.3-.2-.8-.4-1.4-.4h-1v3.1h.9zM301.1 85.3h.7V81h-.7v-.7h1.6v5h.7v.7H301v-.7zm.5-6.6c0-.2.1-.4.2-.5.1-.1.3-.2.5-.2s.3.1.5.2c.1.1.2.3.2.5s-.1.4-.2.5-.3.2-.5.2-.3-.1-.5-.2-.2-.4-.2-.5zM305.8 80.6c.4-.3.9-.5 1.5-.5s1.2.3 1.5.8c.4.5.6 1.2.6 2.1 0 1-.2 1.8-.7 2.3-.5.6-1.2.8-2.1.8-.6 0-1.1-.1-1.7-.3v-8h-.7v-.7h1.6v3.5zm0 4.7c.3.1.6.1.9.1.6 0 1-.2 1.4-.5.3-.4.5-.9.5-1.7 0-.7-.1-1.3-.4-1.7-.2-.4-.6-.6-1.1-.6-.4 0-.8.2-1.2.5v3.9zM314.8 84.9v.8c-.5.3-1.1.5-1.7.5-.8 0-1.4-.3-1.8-.8s-.7-1.3-.7-2.2c0-1 .2-1.7.7-2.3.5-.5 1-.8 1.7-.8.6 0 1 .2 1.4.7s.5 1.1.5 1.9v.5h-3.5c0 .7.2 1.2.4 1.6.3.4.7.6 1.2.6.7 0 1.2-.2 1.8-.5zm-.8-2.5c0-.6-.1-1-.3-1.2-.2-.3-.5-.4-.9-.4s-.7.1-.9.4c-.2.3-.4.7-.4 1.2h2.5zM315.8 85.3h.7V81h-.7v-.7h1.6v.8c.2-.3.4-.5.6-.7.2-.1.5-.2.8-.2h.3v.9h-.5c-.3 0-.5.1-.7.2-.2.1-.4.3-.6.6v3.4h.9v.7h-2.5v-.7zM320.2 80.7c.7-.4 1.4-.6 2.1-.6.6 0 1.1.1 1.4.4s.5.7.5 1.3v3.4h.7v.8h-1.5v-.7c-.5.6-1.1.8-1.7.8-.5 0-.9-.2-1.2-.5-.3-.3-.5-.7-.5-1.1 0-.6.3-1.1.8-1.4.5-.3 1.3-.5 2.3-.5h.3v-.9c0-.4-.1-.6-.3-.8-.2-.2-.5-.2-.9-.2-.5 0-.9.1-1.2.2v.8h-.8v-1zm2.8 2.6c-.7 0-1.2.1-1.6.3s-.5.5-.5.9c0 .3.1.5.3.7.2.1.4.2.7.2.6 0 1.1-.2 1.5-.7v-1.3h-.4zM329.9 85.8c-.5.2-1 .4-1.6.4-.8 0-1.4-.3-1.9-.8s-.7-1.2-.7-2.2c0-1 .2-1.7.7-2.3s1.1-.8 1.9-.8c.5 0 1 .1 1.5.3v1.4h-.8v-.9c-.2-.1-.5-.1-.8-.1-.6 0-1 .2-1.2.5s-.4.9-.4 1.7c0 .8.1 1.4.4 1.8.3.4.7.6 1.2.6s1-.1 1.5-.4v.8zM331.5 77.9h-.7v-.7h1.6V81c.5-.6 1.1-.8 1.8-.8.5 0 .9.1 1.1.4.2.3.3.7.3 1.2v3.6h.7v.6h-2.2v-.7h.6v-3.5c0-.4-.1-.7-.2-.8-.1-.1-.3-.2-.6-.2-.6 0-1.1.3-1.6.8v3.6h.6v.8h-2.2v-.7h.7v-7.4z"/></svg>