<svg width="372" height="128" viewBox="0 0 372 128" xmlns="http://www.w3.org/2000/svg"><title>Artboard Copy 2</title><desc>Created with Sketch.</desc><g fill="none"><g><path d="M170.7 27.8s4.8-1.3 10.7 8.2c5.9 9.5 1.3 19.5-.2 31.7s-1.2 17.3 1.3 22.2c2.5 4.8 4.3 7.2 6.8 6.8 2.5-.4 5.5-3.3 6.2-7.5.7-4.2-1.5-13.3-1-18.5.5-5.2.5-12.3 5.5-13.7 5-1.3 8 3.7 9.3 8.7 1.3 5 .7 12 2.8 18 2.2 6 5.8 8.8 9 9 3.2.2 7-1.5 8.2-8.3 1.2-6.8-.7-19.3-2.3-27.8-1.7-8.5-2.2-22.7 1.8-29 4-6.3 8.5-11.3 16.3-8.8 7.8 2.5 13.7 6 17.2 11.7 3.5 5.7.5 7-1.5 7.8-2 .8-16.7 1.8-19.3 5.5-2.7 3.7-4.5 14.3-4.3 21.2.2 6.8 1.8 16.2-.7 25s-4.5 12.2-8.7 14.5c-4.2 2.3-7.7 3.7-12.2.2-4.5-3.5-5.3-7.7-8-11.7-2.7-4-5.8-6.8-6.7.3-.8 7.2-1.5 12.2-5.7 15.7s-11.5 5.5-15.2 2c-3.7-3.5-9.5-11.7-9.5-19.8 0-8.1 2.8-21.2 4.3-28.7s4-12.3 1.5-18.5c-2.5-6.2-4.3-5.8-6.2-11.2-1.9-5.4.6-5 .6-5z" stroke="#000" stroke-width="2" fill="#F07F05"/><g fill="#182EA4" stroke="#000"><path d="M177 49.8s1.5-1.3 3.2-1.3c1.7 0 3.5 1.2 3.5 1.2l-2.5 16.3s-2.7-3-4.5-1.8c-1.8 1.2-2.8 2.7-2.8 2.7l3.1-17.1zM171.5 80.1s1.5-2 4-2.2c2.5-.2 4.3 1.2 4.3 1.2s.2 2.2 1.2 4.7 1.8 5 1.8 5-1.5-1-4.2.7-5.8 9.5-5.8 9.5-2.3-6.5-1.8-9.5c.5-3 .5-9.4.5-9.4zM186.3 94.9s-1.8 2-2.5 4.8.5 12 .5 12 5.2 1 7.5-.5 4.7-4.3 4.7-4.3-5.5-3-5.5-5.3.7-5.7.7-5.7-.7.8-2.8.3c-2.1-.5-2.6-1.3-2.6-1.3zM195.8 87.4s-.3 2 1.3 3.2c1.7 1.2 4.7-.3 4.7-.3l.5-1.3s-4.2-9.3-3.3-14.2c.8-4.8 2-9.5 3.2-11.5 1.2-2 3.3-4.7 3.3-4.7s-2.8-3.3-6-1.7c-3.2 1.7-5 8.3-5 11.5 0 3.2 1 8 1.3 12.5.3 4.5 0 6.5 0 6.5zM204.3 88.8s1.8-7.8 3.3-9.8c1.5-2 3.2-2.7 3.2-2.7s.7 6 2.3 8.7c1.7 2.7 2.3 3.8 2.3 3.8s-3 2.8-4 4.8-1.2 3.3-1.2 3.3-1.7-5.8-3.8-7l-2.1-1.1zM223.5 92.9s.2 2.3 1.8 5.2c1.6 2.9 5.3 4.2 5.3 4.2s3.5-2.2 4.8-7.2c1.3-5 1.8-11.8 1.8-11.8s-2 .7-4.3-.8-3.5-3.5-3.5-3.5 1 4.8-1.5 8.5c-2.4 3.6-4.4 5.4-4.4 5.4zM227.8 58.1s.5 1.7 2.7 3 6.5 1 6.5 1 .7-8.8 1.8-11.8 2.2-5.5 2.2-5.5-4.7-1.3-8-4.8-4-5.8-4-7.7v-4.7s-2.7 8-2.8 12.7c-.2 4.7 0 10.8.7 13.5.6 2.6.9 4.3.9 4.3zM174.8 40.1s1.5-2.7 3-3.3c1.5-.6 3.7.2 3.7.2s-7-11.2-10.8-9.2c-3.9 2 4.1 12.3 4.1 12.3" id="Path"/></g><g opacity=".42" fill="#fff"><path d="M173 27.9s1.2 6.2 2.7 8.2c1.5 2 4.2 5.5 3.7 12.8-.5 7.3-1 9.7-1.7 13.8-.7 4.2-2.3 9.7-2.7 13-.3 3.3-1.8 12.7-.8 16.8 1 4.1 1.8 9 3.8 11.7 2 2.7 3.2 5 8 4.5s7.8-2.8 9.2-4.7c1.3-1.8 3-6.2 3.7-9.8.7-3.7-.3-7.8 2.7-8.8 3-1 5.5.8 7.7 3.8s3 8.2 6.5 11c3.5 2.8 6.5 3.5 10.2 1.5 3.7-2 6-6.8 7.3-11 1.3-4.2 2.7-7.8 3.7-8.8 1-1 1 2.5 1 2.5s-3.7 13.5-5.2 15.5-7.8 7-11 6.5-6.5-.7-9.8-6.7c-3.3-6-6.7-10.8-8-10.7-1.3.1-3.3 8.8-4.5 13-1.2 4.2-6.2 9.3-10.8 10.3-4.7 1-11.7-2.8-14.2-8s-4.2-14.2-3.2-20.5c1-6.3 4.2-21.3 5.2-25.7 1-4.4 1.8-11.2.2-14.5-1.7-3.3-5.2-8.2-6.2-11.2s-.8-4 .3-4.8c1-.7 2.2.3 2.2.3"/><path d="M229.8 80.1s2.5 1 3.2-1.7c.7-2.7-2.5-15.5-2.5-17s-.8-10.7-.8-13.5c0-2.8-1.8-10.7-.2-13.5 1.7-2.8 2.2-7 5-9.5s10.7-6.3 10.7-6.3-3.8-1.2-7.8.3-7 4.7-8.5 8.5-3.2 12.3-3 15.8c.2 3.5.5 9.3 1.7 15.8s2.2 10.2 2.2 14.2v6.9z"/></g><g stroke="#000"><path d="M177 49.8s1.5-1.3 3.2-1.3c1.7 0 3.5 1.2 3.5 1.2l-2.5 16.3s-2.7-3-4.5-1.8c-1.8 1.2-2.8 2.7-2.8 2.7l3.1-17.1zM171.5 80.1s1.5-2 4-2.2c2.5-.2 4.3 1.2 4.3 1.2s.2 2.2 1.2 4.7 1.8 5 1.8 5-1.5-1-4.2.7-5.8 9.5-5.8 9.5-2.3-6.5-1.8-9.5c.5-3 .5-9.4.5-9.4zM186.3 94.9s-1.8 2-2.5 4.8.5 12 .5 12 5.2 1 7.5-.5 4.7-4.3 4.7-4.3-5.5-3-5.5-5.3.7-5.7.7-5.7-.7.8-2.8.3c-2.1-.5-2.6-1.3-2.6-1.3zM195.8 87.4s-.3 2 1.3 3.2c1.7 1.2 4.7-.3 4.7-.3l.5-1.3s-4.2-9.3-3.3-14.2c.8-4.8 2-9.5 3.2-11.5 1.2-2 3.3-4.7 3.3-4.7s-2.8-3.3-6-1.7c-3.2 1.7-5 8.3-5 11.5 0 3.2 1 8 1.3 12.5.3 4.5 0 6.5 0 6.5zM204.3 88.8s1.8-7.8 3.3-9.8c1.5-2 3.2-2.7 3.2-2.7s.7 6 2.3 8.7c1.7 2.7 2.3 3.8 2.3 3.8s-3 2.8-4 4.8-1.2 3.3-1.2 3.3-1.7-5.8-3.8-7l-2.1-1.1zM223.5 92.9s.2 2.3 1.8 5.2c1.6 2.9 5.3 4.2 5.3 4.2s3.5-2.2 4.8-7.2c1.3-5 1.8-11.8 1.8-11.8s-2 .7-4.3-.8-3.5-3.5-3.5-3.5 1 4.8-1.5 8.5c-2.4 3.6-4.4 5.4-4.4 5.4zM227.8 58.1s.5 1.7 2.7 3 6.5 1 6.5 1 .7-8.8 1.8-11.8 2.2-5.5 2.2-5.5-4.7-1.3-8-4.8-4-5.8-4-7.7v-4.7s-2.7 8-2.8 12.7c-.2 4.7 0 10.8.7 13.5.6 2.6.9 4.3.9 4.3zM174.8 40.1s1.5-2.7 3-3.3c1.5-.6 3.7.2 3.7.2s-7-11.2-10.8-9.2c-3.9 2 4.1 12.3 4.1 12.3" id="Path"/></g><path d="M260 31.4s-1.7 5-8.8 5.3c-6.8.3-9.7-3.3-9.7-3.3l-2.2 3 3-4.8" stroke="#000" stroke-width="2" stroke-linecap="round" stroke-linejoin="round"/><path d="M170.7 27.8s4.8-1.3 10.7 8.2c5.9 9.5 1.3 19.5-.2 31.7s-1.2 17.3 1.3 22.2c2.5 4.8 4.3 7.2 6.8 6.8 2.5-.4 5.5-3.3 6.2-7.5.7-4.2-1.5-13.3-1-18.5.5-5.2.5-12.3 5.5-13.7 5-1.3 8 3.7 9.3 8.7 1.3 5 .7 12 2.8 18 2.2 6 5.8 8.8 9 9 3.2.2 7-1.5 8.2-8.3 1.2-6.8-.7-19.3-2.3-27.8-1.7-8.5-2.2-22.7 1.8-29 4-6.3 8.5-11.3 16.3-8.8 7.8 2.5 13.7 6 17.2 11.7 3.5 5.7.5 7-1.5 7.8-2 .8-16.7 1.8-19.3 5.5-2.7 3.7-4.5 14.3-4.3 21.2.2 6.8 1.8 16.2-.7 25s-4.5 12.2-8.7 14.5c-4.2 2.3-7.7 3.7-12.2.2-4.5-3.5-5.3-7.7-8-11.7-2.7-4-5.8-6.8-6.7.3-.8 7.2-1.5 12.2-5.7 15.7s-11.5 5.5-15.2 2c-3.7-3.5-9.5-11.7-9.5-19.8 0-8.1 2.8-21.2 4.3-28.7s4-12.3 1.5-18.5c-2.5-6.2-4.3-5.8-6.2-11.2-1.9-5.4.6-5 .6-5z"/><g transform="translate(222 15)" stroke="#000"><path d="M16.2 9.1s-9-4-13.2-2.5c-2.3.8-2.8 2.2-2.8 2.2"/><ellipse id="Oval" fill="#fff" cx="21.3" cy="8.9" rx="5.2" ry="5"/><ellipse id="Oval" fill="#fff" cx="30.6" cy="4.8" rx="5" ry="4.7"/><ellipse id="Oval" fill="#000" cx="23.3" cy="9.6" rx="1" ry="1"/><ellipse fill="#000" transform="rotate(-22.998 30.495 6.304)" cx="30.495" cy="6.304" rx="1" ry="1"/></g></g><g fill="#393939" font-family="arabella" font-size="72" font-style="italic"><text transform="translate(15 15) translate(0 1)"><tspan x=".5" y="68">Bücher</tspan></text><text transform="translate(15 15) translate(0 1)"><tspan x="232.348" y="68">ürmle</tspan></text></g></g></svg>