<?xml version="1.0" encoding="UTF-8"?>
<svg width="344px" height="100px" viewBox="0 0 344 100" version="1.1" xmlns="http://www.w3.org/2000/svg" xmlns:xlink="http://www.w3.org/1999/xlink">
    <!-- Generator: Sketch 53.2 (72643) - https://sketchapp.com -->
    <title>buecherwuermle_LogomitSchrift</title>
    <desc>Created with Sketch.</desc>
    <defs>
        <path d="M33.908,20.192 C35.4920079,21.0560043 36.9679932,22.087994 38.336,23.288 C39.7040068,24.488006 40.6759971,25.9279916 41.252,27.608 C42.1640046,29.7680108 42.5600006,31.8679898 42.44,33.908 C42.3199994,35.9480102 41.9000036,37.9999897 41.18,40.064 C40.7479978,41.3120062 40.1120042,42.4279951 39.272,43.412 C38.4319958,44.3960049 37.4840053,45.2359965 36.428,45.932 C35.3719947,46.6280035 34.2320061,47.2159976 33.008,47.696 C31.7839939,48.1760024 30.5960058,48.5359988 29.444,48.776 C31.7480115,49.7360048 33.499994,51.2479897 34.7,53.312 C35.6120046,54.7520072 35.9240014,56.2639921 35.636,57.848 C35.2039978,60.0080108 34.2560073,61.6639942 32.792,62.816 C31.3279927,63.9680058 29.6360096,64.8079974 27.716,65.336 C26.2279926,65.7680022 24.8120067,66.079999 23.468,66.272 C22.1239933,66.464001 20.756007,66.6799988 19.364,66.92 C18.5479959,67.0160005 17.7800036,67.0879998 17.06,67.136 C16.3399964,67.1840002 15.7160026,67.5679964 15.188,68.288 C14.6599974,69.2480048 14.0240037,70.0999963 13.28,70.844 C12.5359963,71.5880037 11.6840048,72.1999976 10.724,72.68 C9.42799352,73.2560029 8.180006,73.1360041 6.98,72.32 C6.78799904,72.1759993 6.6320006,71.9480016 6.512,71.636 C6.3919994,71.3239984 6.30800024,70.9880018 6.26,70.628 C6.21199976,70.2679982 6.22399964,69.9200017 6.296,69.584 C6.36800036,69.2479983 6.49999904,68.9600012 6.692,68.72 C7.07600192,68.1919974 7.54399724,67.7600017 8.096,67.424 C8.64800276,67.0879983 9.25999664,66.8960002 9.932,66.848 C10.3160019,66.848 10.6519986,66.8360001 10.94,66.812 C11.2280014,66.7879999 11.5399983,66.7520002 11.876,66.704 C12.4040026,66.704 12.7399993,66.3920031 12.884,65.768 C13.4120026,63.7039897 13.879998,61.7600091 14.288,59.936 C14.696002,58.1119909 15.0199988,56.3120089 15.26,54.536 C15.8360029,51.5119849 16.4359969,48.6800132 17.06,46.04 C17.6840031,43.3999868 18.4039959,40.784013 19.22,38.192 C19.5080014,37.183995 19.8679978,36.2000048 20.3,35.24 C20.7320022,34.2799952 21.1879976,33.3440046 21.668,32.432 C22.676005,30.7519916 23.7319945,29.2400067 24.836,27.896 C24.9800007,27.703999 25.1119994,27.5360007 25.232,27.392 C25.3520006,27.2479993 25.507999,27.2959988 25.7,27.536 C25.7960005,27.6320005 25.8200002,27.7639992 25.772,27.932 C25.7239998,28.1000008 25.6760002,28.2559993 25.628,28.4 C25.3399986,29.0720034 25.0280017,29.7439966 24.692,30.416 C24.3559983,31.0880034 24.0680012,31.7599966 23.828,32.432 C23.2039969,34.2560091 22.688002,36.0199915 22.28,37.724 C21.871998,39.4280085 21.5000017,41.1439914 21.164,42.872 C20.7799981,45.3200122 20.3960019,47.7079884 20.012,50.036 C19.6279981,52.3640116 19.1960024,54.7039882 18.716,57.056 C18.4279986,58.7360084 18.0920019,60.2959928 17.708,61.736 C17.3239981,63.1760072 16.8680026,64.591993 16.34,65.984 C16.1959993,66.3200017 16.3159981,66.4640002 16.7,66.416 C18.7160101,66.1759988 20.6119911,65.8400022 22.388,65.408 C24.1640089,64.9759978 25.8919916,64.3040046 27.572,63.392 C28.3400038,62.9599978 29.0119971,62.3840036 29.588,61.664 C30.1640029,60.9439964 30.6319982,60.1520043 30.992,59.288 C31.3520018,58.4239957 31.5679996,57.5480044 31.64,56.66 C31.7120004,55.7719956 31.6040014,54.9440038 31.316,54.176 C30.7879974,53.0239942 30.128004,51.9920046 29.336,51.08 C28.543996,50.1679954 27.5240062,49.5200019 26.276,49.136 C26.0359988,49.0399995 25.8080011,48.9560004 25.592,48.884 C25.3759989,48.8119996 25.172001,48.7040007 24.98,48.56 C24.787999,48.56 24.692,48.464001 24.692,48.272 C24.692,48.1759995 24.7399995,48.1040002 24.836,48.056 C24.9320005,48.0079998 25.0039998,47.9600002 25.052,47.912 C25.1480005,47.8639998 25.3159988,47.84 25.556,47.84 C26.2760036,48.0800012 27.031996,48.1520005 27.824,48.056 C28.616004,47.9599995 29.3959962,47.7560016 30.164,47.444 C30.9320038,47.1319984 31.6399968,46.7360024 32.288,46.256 C32.9360032,45.7759976 33.4999976,45.2720026 33.98,44.744 C35.4680074,43.0159914 36.5359968,41.1440101 37.184,39.128 C37.8320032,37.1119899 38.156,35.0720103 38.156,33.008 C38.0599995,30.7039885 37.7000031,28.7360082 37.076,27.104 C36.4519969,25.4719918 35.5160062,23.8400082 34.268,22.208 C32.7319923,20.7679928 31.160008,19.8200023 29.552,19.364 C27.943992,18.9079977 26.1800096,18.6320005 24.26,18.536 C21.859988,18.3919993 19.5080115,18.5719975 17.204,19.076 C14.8999885,19.5800025 12.8120094,20.431994 10.94,21.632 C9.83599448,22.3040034 8.8040048,23.0479959 7.844,23.864 C6.8839952,24.6800041 5.97200432,25.6159947 5.108,26.672 C3.85999376,28.1600074 2.936003,29.9839892 2.336,32.144 C1.735997,34.3040108 1.54399892,36.4159897 1.76,38.48 C1.97600108,40.5440103 2.63599448,42.3559922 3.74,43.916 C4.84400552,45.4760078 6.52398872,46.4239983 8.78,46.76 C9.59600408,46.76 10.3759963,46.6520011 11.12,46.436 C11.8640037,46.2199989 12.5479969,45.7760034 13.172,45.104 C13.3160007,44.9599993 13.5319986,44.8160007 13.82,44.672 C14.1080014,44.5279993 14.3719988,44.4080005 14.612,44.312 C14.9480017,44.119999 15.211999,44.1079992 15.404,44.276 C15.596001,44.4440008 15.6680002,44.7199981 15.62,45.104 C15.5239995,45.8720038 15.2240025,46.4359982 14.72,46.796 C14.2159975,47.1560018 13.6760029,47.4079993 13.1,47.552 C11.8519938,47.9360019 10.6760055,48.1160001 9.572,48.092 C8.46799448,48.0679999 7.36400552,47.7920026 6.26,47.264 C5.34799544,46.8319978 4.54400348,46.2440037 3.848,45.5 C3.15199652,44.7559963 2.55200252,43.9280046 2.048,43.016 C1.54399748,42.1039954 1.16000132,41.1680048 0.896,40.208 C0.63199868,39.2479952 0.5,38.2880048 0.5,37.328 C0.5,35.4079904 0.7399976,33.6560079 1.22,32.072 C1.7000024,30.4879921 2.37199568,28.9280077 3.236,27.392 C3.90800336,26.1439938 4.73599508,25.0520047 5.72,24.116 C6.70400492,23.1799953 7.795994,22.3280038 8.996,21.56 C10.8200091,20.4079942 12.6439909,19.5560028 14.468,19.004 C16.2920091,18.4519972 18.1879902,17.9840019 20.156,17.6 C20.8280034,17.6 21.463997,17.5760002 22.064,17.528 C22.664003,17.4799998 23.2519971,17.456 23.828,17.456 C25.5080084,17.456 27.2599909,17.7199974 29.084,18.248 C30.9080091,18.7760026 32.515993,19.4239962 33.908,20.192 Z M7.628,71.312 C7.77200072,71.8400026 8.10799736,72.1639994 8.636,72.284 C9.16400264,72.4040006 9.64399784,72.2720019 10.076,71.888 C10.7000031,71.3599974 11.1799983,70.7840031 11.516,70.16 C11.8520017,69.5359969 12.1399988,68.8640036 12.38,68.144 C12.4280002,67.9039988 12.4280002,67.7120007 12.38,67.568 C12.3319998,67.4239993 12.1640014,67.3759998 11.876,67.424 C11.3479974,67.5680007 10.8320025,67.6879995 10.328,67.784 C9.82399748,67.8800005 9.3320024,67.9999993 8.852,68.144 C8.1319964,68.3840012 7.66400108,68.8279968 7.448,69.476 C7.23199892,70.1240032 7.29199832,70.7359971 7.628,71.312 Z M53.636,34.448 C54.1160024,35.0240029 54.2960006,35.5999971 54.176,36.176 C54.0559994,36.7520029 53.792002,37.2079983 53.384,37.544 C52.975998,37.8800017 52.4840029,38.048 51.908,38.048 C51.3319971,38.048 50.8280022,37.7600029 50.396,37.184 C50.0119981,36.6559974 49.8919993,36.1400025 50.036,35.636 C50.1800007,35.1319975 50.4439981,34.7360014 50.828,34.448 C51.2120019,34.1599986 51.6679974,34.0040001 52.196,33.98 C52.7240026,33.9559999 53.2039978,34.1119983 53.636,34.448 Z M61.7,34.664 C62.0840019,35.0960022 62.2640001,35.5879972 62.24,36.14 C62.2159999,36.6920028 62.0480016,37.1599981 61.736,37.544 C61.4239984,37.9280019 61.0280024,38.1799994 60.548,38.3 C60.0679976,38.4200006 59.5400029,38.2880019 58.964,37.904 C58.3879971,37.4719978 58.1,36.9800028 58.1,36.428 C58.1,35.8759972 58.2679983,35.3840022 58.604,34.952 C58.9400017,34.5199978 59.3959971,34.2440006 59.972,34.124 C60.5480029,34.0039994 61.1239971,34.1839976 61.7,34.664 Z M55.58,59.288 C55.0519974,59.7680024 54.6200017,60.3559965 54.284,61.052 C53.9479983,61.7480035 53.5880019,62.3839971 53.204,62.96 C52.7719978,63.5360029 52.3280023,64.0999972 51.872,64.652 C51.4159977,65.2040028 50.9000029,65.7439974 50.324,66.272 C49.9399981,66.6560019 49.448003,67.0279982 48.848,67.388 C48.247997,67.7480018 47.6360031,67.928 47.012,67.928 C46.3879969,67.928 45.8000028,67.7600017 45.248,67.424 C44.6959972,67.0879983 44.2280019,66.6800024 43.844,66.2 C43.4599981,65.6239971 43.1840008,64.9880035 43.016,64.292 C42.8479992,63.5959965 42.764,62.8880036 42.764,62.168 C42.764,61.4479964 42.7999996,60.7160037 42.872,59.972 C42.9440004,59.2279963 43.0279995,58.5440031 43.124,57.92 C43.3640012,56.3839923 43.6519983,54.8360078 43.988,53.276 C44.3240017,51.7159922 44.7559974,50.2160072 45.284,48.776 C45.476001,48.2479974 45.7159986,47.6120037 46.004,46.868 C46.2920014,46.1239963 46.6999974,45.6080014 47.228,45.32 C47.6600022,45.0799988 48.175997,45.0439992 48.776,45.212 C49.376003,45.3800008 49.7239995,45.7279974 49.82,46.256 C49.9160005,46.5440014 49.9280004,46.8559983 49.856,47.192 C49.7839996,47.5280017 49.7000005,47.8399986 49.604,48.128 C49.5079995,48.5120019 49.4240004,48.8839982 49.352,49.244 C49.2799996,49.6040018 49.1960005,49.9759981 49.1,50.36 C48.9559993,51.1760041 48.8000008,51.979996 48.632,52.772 C48.4639992,53.564004 48.2600012,54.3679959 48.02,55.184 C47.6359981,56.7200077 47.348001,58.2319926 47.156,59.72 C47.0119993,60.4880038 46.844001,61.3159956 46.652,62.204 C46.459999,63.0920044 46.4119995,63.9199962 46.508,64.688 C46.6040005,65.2160026 46.8079984,65.7079977 47.12,66.164 C47.4320016,66.6200023 47.8999969,66.6560019 48.524,66.272 C49.1480031,65.8879981 49.7119975,65.4440025 50.216,64.94 C50.7200025,64.4359975 51.2119976,63.8960029 51.692,63.32 C52.1240022,62.7439971 52.543998,62.1440031 52.952,61.52 C53.360002,60.8959969 53.7559981,60.2720031 54.14,59.648 C54.5720022,59.0239969 54.9679982,58.412003 55.328,57.812 C55.6880018,57.211997 55.9879988,56.5280038 56.228,55.76 C56.420001,55.0879966 56.5639995,54.4040035 56.66,53.708 C56.7560005,53.0119965 56.899999,52.3280034 57.092,51.656 C57.2360007,50.8879962 57.4279988,50.1320037 57.668,49.388 C57.9080012,48.6439963 58.1719986,47.8880038 58.46,47.12 C58.9400024,46.0159945 59.5159966,44.9120055 60.188,43.808 C60.8600034,42.7039945 61.8679933,42.0080014 63.212,41.72 C63.6440022,41.6239995 64.0759978,41.6119996 64.508,41.684 C64.9400022,41.7560004 65.1080005,42.0799971 65.012,42.656 C64.9159995,43.3280034 64.6400023,44.0119965 64.184,44.708 C63.7279977,45.4040035 63.3080019,46.0159974 62.924,46.544 C62.4919978,47.1680031 62.1080017,47.7679971 61.772,48.344 C61.4359983,48.9200029 61.1480012,49.5679964 60.908,50.288 C60.6679988,51.1040041 60.4640008,51.907996 60.296,52.7 C60.1279992,53.492004 59.948001,54.2959959 59.756,55.112 C59.4679986,56.6000074 59.1920013,58.147992 58.928,59.756 C58.6639987,61.364008 58.6519988,62.9359923 58.892,64.472 C58.9880005,65.0480029 59.1679987,65.6719966 59.432,66.344 C59.6960013,67.0160034 60.0679976,67.5439981 60.548,67.928 C61.0760026,68.3120019 61.639997,68.3840012 62.24,68.144 C62.840003,67.9039988 63.3559978,67.6160017 63.788,67.28 C64.3160026,66.8479978 64.783998,66.3440029 65.192,65.768 C65.600002,65.1919971 65.9959981,64.6160029 66.38,64.04 C66.7640019,63.3679966 67.1479981,62.6720036 67.532,61.952 C67.9160019,61.2319964 68.2759983,60.5120036 68.612,59.792 C68.7560007,59.5039986 68.8999993,59.1320023 69.044,58.676 C69.1880007,58.2199977 69.3439992,57.788002 69.512,57.38 C69.6800008,56.971998 69.8479992,56.6360013 70.016,56.372 C70.1840008,56.1079987 70.3399993,55.9999998 70.484,56.048 C70.7240012,56.1440005 70.8200002,56.287999 70.772,56.48 C70.7239998,56.672001 70.6280007,56.9119986 70.484,57.2 C70.3399993,57.5360017 70.1960007,57.8599984 70.052,58.172 C69.9079993,58.4840016 69.7640007,58.8319981 69.62,59.216 C69.3799988,59.7920029 69.1280013,60.379997 68.864,60.98 C68.5999987,61.580003 68.3000017,62.1679971 67.964,62.744 C67.4359974,63.752005 66.8360034,64.7719948 66.164,65.804 C65.4919966,66.8360052 64.6760048,67.6879966 63.716,68.36 C62.7559952,69.0320034 61.7240055,69.2960007 60.62,69.152 C59.5159945,69.0079993 58.5560041,68.5040043 57.74,67.64 C57.3559981,67.2079978 57.0320013,66.7280026 56.768,66.2 C56.5039987,65.6719974 56.276001,65.1440026 56.084,64.616 C55.6999981,63.607995 55.4960001,62.5880052 55.472,61.556 C55.4479999,60.5239948 55.4839995,59.7680024 55.58,59.288 Z M63.5,43.664 L62.636,45.392 C62.6840002,45.4400002 62.8159989,45.3320013 63.032,45.068 C63.2480011,44.8039987 63.451999,44.5160016 63.644,44.204 C63.836001,43.8919984 64.0039993,43.5680017 64.148,43.232 C64.2920007,42.8959983 64.3400002,42.6800005 64.292,42.584 C64.1959995,42.584 64.0640008,42.7159987 63.896,42.98 C63.7279992,43.2440013 63.5960005,43.471999 63.5,43.664 Z M72.7210811,58.7456001 C72.730445,58.745332 72.7527512,58.8421316 72.788,59.036 C72.8360002,59.3000013 72.8959996,59.6719976 72.968,60.152 C73.0400004,60.6320024 73.1239995,61.1479972 73.22,61.7 C73.3160005,62.2520028 73.4119995,62.7679976 73.508,63.248 C73.6040005,63.8240029 73.7599989,64.3879972 73.976,64.94 C74.1920011,65.4920028 74.5639974,65.9599981 75.092,66.344 C75.6200026,66.7280019 76.1959969,66.92 76.82,66.92 C77.4440031,66.92 78.055997,66.8120011 78.656,66.596 C79.256003,66.3799989 79.8199974,66.0920018 80.348,65.732 C80.8760026,65.3719982 81.3559978,65.0000019 81.788,64.616 C82.8920055,63.7519957 83.8519959,62.7320059 84.668,61.556 C85.4840041,60.3799941 86.1559974,59.1680062 86.684,57.92 C86.7800005,57.6319986 86.8999993,57.2960019 87.044,56.912 C87.1880007,56.5279981 87.3319993,56.1680017 87.476,55.832 C87.6200007,55.4959983 87.7759992,55.2200011 87.944,55.004 C88.1120008,54.7879989 88.2679993,54.7279995 88.412,54.824 C88.604001,54.9680007 88.6760002,55.2079983 88.628,55.544 C88.5799998,55.8800017 88.4840007,56.2399981 88.34,56.624 C88.1959993,57.0080019 88.028001,57.403998 87.836,57.812 C87.643999,58.220002 87.4760007,58.5679986 87.332,58.856 C86.7079969,60.1520065 85.9760042,61.4359936 85.136,62.708 C84.2959958,63.9800064 83.2520062,65.0239959 82.004,65.84 C80.803994,66.6560041 79.508007,67.267998 78.116,67.676 C76.723993,68.084002 75.3080072,68.0480024 73.868,67.568 C72.475993,67.1359978 71.3960038,66.3800054 70.628,65.3 C69.8599962,64.2199946 69.3320014,63.0200066 69.044,61.7 C68.7559986,60.3799934 68.6479996,59.0000072 68.72,57.56 C68.7920004,56.1199928 68.9719986,54.8240058 69.26,53.672 C69.5000012,52.3759935 69.8839974,51.128006 70.412,49.928 C70.9400026,48.727994 71.5399966,47.5760055 72.212,46.472 C72.9320036,45.3679945 73.7479954,44.3000052 74.66,43.268 C75.5720046,42.2359948 76.6039942,41.4320029 77.756,40.856 C78.8120053,40.3279974 79.9639938,39.9920007 81.212,39.848 C82.4600062,39.7039993 83.6359945,39.9679966 84.74,40.64 C85.6520046,41.1680026 86.2279988,41.9839945 86.468,43.088 C86.5640005,43.3760014 86.6000001,43.6759984 86.576,43.988 C86.5519999,44.3000016 86.5160002,44.6239983 86.468,44.96 C86.3719995,45.4400024 86.2760005,45.8719981 86.18,46.256 C86.0839995,46.6400019 85.8200022,46.7600007 85.388,46.616 C85.0999986,46.5199995 84.9799998,46.3160016 85.028,46.004 C85.0760002,45.6919984 85.1479995,45.3680017 85.244,45.032 C85.3400005,44.6959983 85.4119998,44.3720016 85.46,44.06 C85.5080002,43.7479984 85.4840005,43.4000019 85.388,43.016 C85.2919995,42.5359976 85.0880016,42.0560024 84.776,41.576 C84.4639984,41.0959976 84.0200029,40.8080005 83.444,40.712 C82.9159974,40.6159995 82.3880026,40.6759989 81.86,40.892 C81.3319974,41.1080011 80.8280024,41.3959982 80.348,41.756 C79.8679976,42.1160018 79.4360019,42.5239977 79.052,42.98 C78.6679981,43.4360023 78.3560012,43.8799978 78.116,44.312 C77.3479962,45.4160055 76.664003,46.5799939 76.064,47.804 C75.463997,49.0280061 74.9000026,50.2639938 74.372,51.512 C74.1319988,52.1360031 73.916001,52.747997 73.724,53.348 C73.531999,53.948003 73.3880005,54.5839966 73.292,55.256 C73.1959995,55.5440014 73.1360001,55.8319986 73.112,56.12 C73.0879999,56.4080014 73.0520002,56.6959986 73.004,56.984 C73.004,57.2240012 73.0159999,57.5839976 73.04,58.064 C73.0636553,58.5371058 72.9590774,58.7770539 72.7262632,58.7838514 L72.7210811,58.7456001 Z M105.116,18.104 C105.356001,18.3920014 105.452,18.7639977 105.404,19.22 C105.356,19.6760023 105.308,20.0959981 105.26,20.48 C105.164,21.5360053 104.924002,22.567995 104.54,23.576 C104.155998,24.584005 103.748002,25.5679952 103.316,26.528 C102.931998,27.4880048 102.452003,28.4119956 101.876,29.3 C101.299997,30.1880044 100.724003,31.0879954 100.148,32 C99.5719971,32.9120046 98.9720031,33.7879958 98.348,34.628 C97.7239969,35.4680042 97.0760034,36.2959959 96.404,37.112 C96.0679983,37.4960019 95.7320017,37.8559983 95.396,38.192 C95.0599983,38.5280017 94.7240017,38.8879981 94.388,39.272 L93.236,40.28 C92.8519981,40.6160017 92.5400012,40.9759981 92.3,41.36 C92.0599988,41.7440019 91.9160002,42.1759976 91.868,42.656 C91.8199998,43.1360024 91.7480005,43.6159976 91.652,44.096 C91.3159983,45.7760084 91.0280012,47.4319918 90.788,49.064 C90.5479988,50.6960082 90.332001,52.3519916 90.14,54.032 L89.852,57.056 C89.7559995,58.064005 89.7799993,59.071995 89.924,60.08 C90.4520026,58.8319938 90.9079981,57.512007 91.292,56.12 C91.6760019,54.727993 92.1559971,53.4080062 92.732,52.16 C93.3080029,50.9119938 93.8839971,49.592007 94.46,48.2 C95.0360029,46.807993 95.827995,45.608005 96.836,44.6 C97.5560036,43.8319962 98.3959952,43.3160013 99.356,43.052 C100.316005,42.7879987 101.275995,42.9439971 102.236,43.52 C102.860003,43.9040019 103.291999,44.3839971 103.532,44.96 C103.772001,45.5360029 103.916,46.1479968 103.964,46.796 C104.012,47.4440032 104,48.1039966 103.928,48.776 C103.856,49.4480034 103.82,50.0719971 103.82,50.648 C103.772,51.4640041 103.7,52.2439963 103.604,52.988 C103.508,53.7320037 103.388001,54.4879962 103.244,55.256 C103.051999,55.9760036 102.908,56.7079963 102.812,57.452 C102.716,58.1960037 102.596001,58.9519962 102.452,59.72 C102.307999,60.4400036 102.164001,61.1479965 102.02,61.844 C101.875999,62.5400035 101.804,63.2959959 101.804,64.112 C101.804,64.6880029 101.828,65.3599962 101.876,66.128 C101.924,66.8960038 102.163998,67.4959978 102.596,67.928 C103.076002,68.4080024 103.555998,68.4920016 104.036,68.18 C104.516002,67.8679984 104.971998,67.4000031 105.404,66.776 C105.836002,66.1519969 106.207998,65.5040034 106.52,64.832 C106.832002,64.1599966 107.059999,63.7040012 107.204,63.464 C107.540002,62.7919966 107.863998,62.1320032 108.176,61.484 C108.488002,60.8359968 108.763999,60.1520036 109.004,59.432 C109.148001,59.1439986 109.279999,58.7720023 109.4,58.316 C109.520001,57.8599977 109.639999,57.4160022 109.76,56.984 C109.880001,56.5519978 110.023999,56.2040013 110.192,55.94 C110.360001,55.6759987 110.539999,55.5679998 110.732,55.616 C110.924001,55.6640002 111.008,55.8319986 110.984,56.12 C110.96,56.4080014 110.888001,56.7439981 110.768,57.128 C110.647999,57.5120019 110.504001,57.8959981 110.336,58.28 C110.167999,58.6640019 110.012001,58.9999986 109.868,59.288 C109.627999,60.0080036 109.376001,60.7279964 109.112,61.448 C108.847999,62.1680036 108.572001,62.8639966 108.284,63.536 C107.803998,64.6400055 107.156004,65.7799941 106.34,66.956 C105.523996,68.1320059 104.492006,68.8879983 103.244,69.224 C102.475996,69.416001 101.792003,69.3920012 101.192,69.152 C100.591997,68.9119988 100.100002,68.5400025 99.716,68.036 C99.3319981,67.5319975 99.0200012,66.9440034 98.78,66.272 C98.5399988,65.5999966 98.3960002,64.9280034 98.348,64.256 C98.2039993,62.7199923 98.3239981,61.1840077 98.708,59.648 C99.0920019,58.1119923 99.4279986,56.6000074 99.716,55.112 C99.8600007,54.3919964 99.9919994,53.6600037 100.112,52.916 C100.232001,52.1719963 100.316,51.4160038 100.364,50.648 C100.364,49.8319959 100.388,49.028004 100.436,48.236 C100.484,47.443996 100.412001,46.7360031 100.22,46.112 C100.124,45.8719988 99.980001,45.6320012 99.788,45.392 C99.595999,45.1519988 99.3560014,45.0080002 99.068,44.96 C98.8279988,44.9119998 98.5520016,45.0319986 98.24,45.32 C97.9279984,45.6080014 97.676001,45.847999 97.484,46.04 C96.9559974,46.5680026 96.488002,47.1439969 96.08,47.768 C95.671998,48.3920031 95.3000017,49.0399966 94.964,49.712 C94.6279983,50.3840034 94.3280013,51.0319969 94.064,51.656 C93.7999987,52.2800031 93.5480012,52.9279966 93.308,53.6 C93.0679988,54.3680038 92.7920016,55.1119964 92.48,55.832 C92.1679984,56.5520036 91.8920012,57.2959962 91.652,58.064 C91.2199978,59.456007 90.7760023,60.8839927 90.32,62.348 C89.8639977,63.8120073 89.7559988,65.3119923 89.996,66.848 C90.0440002,67.4240029 89.9360013,67.7839993 89.672,67.928 C89.4079987,68.0720007 89.0960018,68.0840006 88.736,67.964 C88.3759982,67.8439994 88.0040019,67.6400014 87.62,67.352 C87.2359981,67.0639986 86.9720007,66.7760014 86.828,66.488 C86.5879988,66.0559978 86.468,65.5520029 86.468,64.976 L86.468,63.32 C86.468,62.5999964 86.4560001,61.8800036 86.432,61.16 C86.4079999,60.4399964 86.4199998,59.7200036 86.468,59 C86.5640005,56.1199856 86.7679984,53.2640142 87.08,50.432 C87.3920016,47.5999858 87.8119974,44.7920139 88.34,42.008 C88.8680026,39.415987 89.5159962,36.8480127 90.284,34.304 C91.0520038,31.7599873 92.035994,29.3120118 93.236,26.96 C93.7640026,25.8079942 94.3519968,24.7160052 95,23.684 C95.6480032,22.6519948 96.3799959,21.6560048 97.196,20.696 C97.9640038,19.7839954 98.8279952,19.0880024 99.788,18.608 C100.124002,18.415999 100.531998,18.2120011 101.012,17.996 C101.492002,17.7799989 101.983997,17.6240005 102.488,17.528 C102.992003,17.4319995 103.471998,17.4199996 103.928,17.492 C104.384002,17.5640004 104.779998,17.7679983 105.116,18.104 Z M103.748,18.464 C103.267998,18.3679995 102.776003,18.4879983 102.272,18.824 C101.767997,19.1600017 101.348002,19.4959983 101.012,19.832 C100.195996,20.5520036 99.5120028,21.3919952 98.96,22.352 C98.4079972,23.3120048 97.8680026,24.295995 97.34,25.304 C96.8119974,26.4560058 96.344002,27.631994 95.936,28.832 C95.527998,30.032006 95.0840024,31.231994 94.604,32.432 C94.1719978,33.632006 93.7760018,34.8439939 93.416,36.068 C93.0559982,37.2920061 92.8040007,38.5279938 92.66,39.776 C93.3800036,39.2479974 94.0279971,38.588004 94.604,37.796 C95.1800029,37.003996 95.7559971,36.2720034 96.332,35.6 C97.0040034,34.7839959 97.6159972,33.980004 98.168,33.188 C98.7200028,32.395996 99.2599974,31.5680043 99.788,30.704 C100.268002,29.8879959 100.759997,29.084004 101.264,28.292 C101.768003,27.499996 102.235998,26.6720043 102.668,25.808 C102.860001,25.4719983 103.099999,24.9200038 103.388,24.152 C103.676001,23.3839962 103.903999,22.5920041 104.072,21.776 C104.240001,20.9599959 104.324,20.2280032 104.324,19.58 C104.324,18.9319968 104.132002,18.5600005 103.748,18.464 Z M126.572,56.984 C126.668,56.5999981 126.775999,56.2640014 126.896,55.976 C127.016001,55.6879986 127.195999,55.4240012 127.436,55.184 C127.724001,54.8479983 127.904,54.8359984 127.976,55.148 C128.048,55.4600016 128.036,55.711999 127.94,55.904 C127.315997,57.4400077 126.704003,58.8679934 126.104,60.188 C125.503997,61.5080066 124.700005,62.7919938 123.692,64.04 C123.067997,64.8560041 122.312004,65.5879968 121.424,66.236 C120.535996,66.8840032 119.588005,67.3639984 118.58,67.676 C117.571995,67.9880016 116.540005,68.0960005 115.484,68 C114.427995,67.9039995 113.444005,67.5200034 112.532,66.848 C111.427994,66.0799962 110.600003,65.096006 110.048,63.896 C109.495997,62.695994 109.196,61.4480065 109.148,60.152 C109.052,58.7119928 109.135999,57.2120078 109.4,55.652 C109.664001,54.0919922 110.059997,52.6640065 110.588,51.368 C110.828001,50.6959966 111.103998,50.0480031 111.416,49.424 C111.728002,48.7999969 112.075998,48.2240026 112.46,47.696 C113.420005,46.4479938 114.391995,45.3560047 115.376,44.42 C116.360005,43.4839953 117.595993,43.016 119.084,43.016 C119.804004,42.9679998 120.547996,43.0879986 121.316,43.376 C121.940003,43.6640014 122.419998,44.0839972 122.756,44.636 C123.092002,45.1880028 123.319999,45.7999966 123.44,46.472 C123.560001,47.1440034 123.572,47.8279965 123.476,48.524 C123.38,49.2200035 123.188001,49.8799969 122.9,50.504 C122.515998,51.3200041 122.084002,52.1479958 121.604,52.988 C121.123998,53.8280042 120.572003,54.5599969 119.948,55.184 C119.371997,55.8080031 118.784003,56.3479977 118.184,56.804 C117.583997,57.2600023 116.828005,57.4400005 115.916,57.344 C115.099996,57.2479995 114.404003,56.9600024 113.828,56.48 C113.683999,56.4319998 113.564,56.3600005 113.468,56.264 C113.275999,56.1679995 113.18,56.1439998 113.18,56.192 C113.132,56.4800014 113.084,56.7799984 113.036,57.092 C112.988,57.4040016 112.94,57.7279983 112.892,58.064 C112.796,59.0240048 112.736,59.9719953 112.712,60.908 C112.688,61.8440047 112.843998,62.7679954 113.18,63.68 C113.324001,64.0160017 113.503999,64.3999978 113.72,64.832 C113.936001,65.2640022 114.187999,65.6719981 114.476,66.056 C114.764001,66.4400019 115.099998,66.7519988 115.484,66.992 C115.868002,67.2320012 116.275998,67.3040005 116.708,67.208 C117.380003,67.1599998 118.159996,66.9200022 119.048,66.488 C119.936004,66.0559978 120.835995,65.4080043 121.748,64.544 C122.660005,63.6799957 123.535996,62.6240062 124.376,61.376 C125.216004,60.1279938 125.947997,58.6640084 126.572,56.984 Z M113.567404,54.0293104 C113.578747,54.0535547 113.593613,54.1024512 113.612,54.176 C113.66,54.368001 113.755999,54.6199984 113.9,54.932 C114.044001,55.2440016 114.247999,55.5559984 114.512,55.868 C114.776001,56.1800016 115.123998,56.3839995 115.556,56.48 C116.180003,56.672001 116.827997,56.5400023 117.5,56.084 C118.172003,55.6279977 118.699998,55.2080019 119.084,54.824 C120.140005,53.815995 121.003997,52.6640065 121.676,51.368 C122.012002,50.6959966 122.311999,49.9760038 122.576,49.208 C122.840001,48.4399962 122.924,47.6960036 122.828,46.976 C122.732,46.4479974 122.576001,45.884003 122.36,45.284 C122.143999,44.683997 121.748003,44.3360005 121.172,44.24 C120.547997,44.1439995 119.912003,44.299998 119.264,44.708 C118.615997,45.116002 118.100002,45.5119981 117.716,45.896 C116.611994,47.0000055 115.772003,48.2839927 115.196,49.748 C114.629954,51.1866995 114.087094,52.6137892 113.567404,54.0293104 L113.567404,54.0293104 Z M134.708,59.288 C134.756,58.7119971 134.839999,58.1360029 134.96,57.56 C135.080001,56.9839971 135.164,56.4320026 135.212,55.904 C135.26,55.4239976 135.379999,54.9080028 135.572,54.356 C135.764001,53.8039972 135.943999,53.2520028 136.112,52.7 C136.280001,52.1479972 136.435999,51.6080026 136.58,51.08 C136.724001,50.5519974 136.772,50.0960019 136.724,49.712 C136.243998,49.9520012 135.836002,50.3959968 135.5,51.044 C135.163998,51.6920032 134.828002,52.2319978 134.492,52.664 C134.059998,53.1920026 133.592003,53.7199974 133.088,54.248 C132.583997,54.7760026 132.068003,55.3039974 131.54,55.832 C131.203998,56.1680017 130.748003,56.539998 130.172,56.948 C129.595997,57.356002 129.020003,57.6439992 128.444,57.812 C127.867997,57.9800008 127.352002,57.9560011 126.896,57.74 C126.439998,57.5239989 126.164,56.9840043 126.068,56.12 C125.923999,54.5839923 126.127997,53.0840073 126.68,51.62 C127.232003,50.1559927 127.651999,48.6800074 127.94,47.192 C128.084001,46.4719964 128.263999,45.716004 128.48,44.924 C128.696001,44.131996 128.78,43.3760036 128.732,42.656 C128.684,41.9839966 128.815998,41.4920016 129.128,41.18 C129.440002,40.8679984 129.931997,40.8319988 130.604,41.072 C131.324004,41.3120012 131.791999,41.6959974 132.008,42.224 C132.224001,42.7520026 132.32,43.3519966 132.296,44.024 C132.272,44.6960034 132.152001,45.3679966 131.936,46.04 C131.719999,46.7120034 131.540001,47.2879976 131.396,47.768 C131.155999,48.4880036 130.916001,49.1959965 130.676,49.892 C130.435999,50.5880035 130.244001,51.2959964 130.1,52.016 C130.052,52.208001 129.992,52.4839982 129.92,52.844 C129.848,53.2040018 129.812,53.5519983 129.812,53.888 C129.812,54.2240017 129.883999,54.4759992 130.028,54.644 C130.172001,54.8120008 130.459998,54.800001 130.892,54.608 C131.372002,54.3679988 131.899997,53.9600029 132.476,53.384 C133.052003,52.8079971 133.615997,52.1720035 134.168,51.476 C134.720003,50.7799965 135.235998,50.0840035 135.716,49.388 C136.196002,48.6919965 136.579999,48.1280022 136.868,47.696 C137.156001,47.2159976 137.455998,46.7000028 137.768,46.148 C138.080002,45.5959972 138.499997,45.224001 139.028,45.032 C139.460002,44.9359995 139.927997,44.9599993 140.432,45.104 C140.936003,45.2480007 141.236,45.5839974 141.332,46.112 C141.38,46.4960019 141.344001,47.0479964 141.224,47.768 C141.103999,48.4880036 140.948001,49.243996 140.756,50.036 C140.563999,50.828004 140.360001,51.5719965 140.144,52.268 C139.927999,52.9640035 139.796,53.4799983 139.748,53.816 C139.507999,55.208007 139.280001,56.599993 139.064,57.992 C138.847999,59.384007 138.620001,60.775993 138.38,62.168 C138.284,62.8400034 138.212,63.4639971 138.164,64.04 C138.116,64.6160029 138.283998,65.2159969 138.668,65.84 C139.004002,66.4160029 139.399998,66.5600014 139.856,66.272 C140.312002,65.9839986 140.731998,65.6960014 141.116,65.408 C142.172005,64.5919959 143.059996,63.6560053 143.78,62.6 L145.94,59.432 C146.324002,58.9519976 146.611999,58.4360028 146.804,57.884 C146.996001,57.3319972 147.283998,56.8160024 147.668,56.336 C147.764,56.2399995 147.895999,56.1320006 148.064,56.012 C148.232001,55.8919994 148.364,55.927999 148.46,56.12 C148.556,56.312001 148.532001,56.5399987 148.388,56.804 C148.243999,57.0680013 148.124,57.2719993 148.028,57.416 C147.307996,58.6640062 146.552004,59.9239936 145.76,61.196 C144.967996,62.4680064 144.092005,63.6559945 143.132,64.76 C142.459997,65.5760041 141.596005,66.3439964 140.54,67.064 C139.483995,67.7840036 138.380006,67.9520019 137.228,67.568 C136.459996,67.2319983 135.836002,66.6320043 135.356,65.768 C134.587996,64.6639945 134.263999,63.608005 134.384,62.6 C134.504001,61.591995 134.612,60.488006 134.708,59.288 Z" id="path-1"></path>
        <path d="M11.22,16.448 C11.7000024,17.0240029 11.8800006,17.5999971 11.76,18.176 C11.6399994,18.7520029 11.376002,19.2079983 10.968,19.544 C10.559998,19.8800017 10.0680029,20.048 9.492,20.048 C8.91599712,20.048 8.41200216,19.7600029 7.98,19.184 C7.59599808,18.6559974 7.47599928,18.1400025 7.62,17.636 C7.76400072,17.1319975 8.02799808,16.7360014 8.412,16.448 C8.79600192,16.1599986 9.25199736,16.0040001 9.78,15.98 C10.3080026,15.9559999 10.7879978,16.1119983 11.22,16.448 Z M19.284,16.664 C19.6680019,17.0960022 19.8480001,17.5879972 19.824,18.14 C19.7999999,18.6920028 19.6320016,19.1599981 19.32,19.544 C19.0079984,19.9280019 18.6120024,20.1799994 18.132,20.3 C17.6519976,20.4200006 17.1240029,20.2880019 16.548,19.904 C15.9719971,19.4719978 15.684,18.9800028 15.684,18.428 C15.684,17.8759972 15.8519983,17.3840022 16.188,16.952 C16.5240017,16.5199978 16.9799971,16.2440006 17.556,16.124 C18.1320029,16.0039994 18.7079971,16.1839976 19.284,16.664 Z M13.164,41.288 C12.6359974,41.7680024 12.2040017,42.3559965 11.868,43.052 C11.5319983,43.7480035 11.1720019,44.3839971 10.788,44.96 C10.3559978,45.5360029 9.91200228,46.0999972 9.456,46.652 C8.99999772,47.2040028 8.48400288,47.7439974 7.908,48.272 C7.52399808,48.6560019 7.032003,49.0279982 6.432,49.388 C5.831997,49.7480018 5.22000312,49.928 4.596,49.928 C3.97199688,49.928 3.38400276,49.7600017 2.832,49.424 C2.27999724,49.0879983 1.81200192,48.6800024 1.428,48.2 C1.04399808,47.6239971 0.76800084,46.9880035 0.6,46.292 C0.43199916,45.5959965 0.348,44.8880036 0.348,44.168 C0.348,43.4479964 0.38399964,42.7160037 0.456,41.972 C0.52800036,41.2279963 0.61199952,40.5440031 0.708,39.92 C0.9480012,38.3839923 1.23599832,36.8360078 1.572,35.276 C1.90800168,33.7159922 2.33999736,32.2160072 2.868,30.776 C3.06000096,30.2479974 3.29999856,29.6120037 3.588,28.868 C3.87600144,28.1239963 4.28399736,27.6080014 4.812,27.32 C5.24400216,27.0799988 5.759997,27.0439992 6.36,27.212 C6.960003,27.3800008 7.30799952,27.7279974 7.404,28.256 C7.50000048,28.5440014 7.51200036,28.8559983 7.44,29.192 C7.36799964,29.5280017 7.28400048,29.8399986 7.188,30.128 C7.09199952,30.5120019 7.00800036,30.8839982 6.936,31.244 C6.86399964,31.6040018 6.78000048,31.9759981 6.684,32.36 C6.53999928,33.1760041 6.38400084,33.979996 6.216,34.772 C6.04799916,35.564004 5.8440012,36.3679959 5.604,37.184 C5.21999808,38.7200077 4.93200096,40.2319926 4.74,41.72 C4.59599928,42.4880038 4.42800096,43.3159956 4.236,44.204 C4.04399904,45.0920044 3.99599952,45.9199962 4.092,46.688 C4.18800048,47.2160026 4.39199844,47.7079977 4.704,48.164 C5.01600156,48.6200023 5.48399688,48.6560019 6.108,48.272 C6.73200312,47.8879981 7.29599748,47.4440025 7.8,46.94 C8.30400252,46.4359975 8.7959976,45.8960029 9.276,45.32 C9.70800216,44.7439971 10.127998,44.1440031 10.536,43.52 C10.944002,42.8959969 11.3399981,42.2720031 11.724,41.648 C12.1560022,41.0239969 12.5519982,40.412003 12.912,39.812 C13.2720018,39.211997 13.5719988,38.5280038 13.812,37.76 C14.004001,37.0879966 14.1479995,36.4040035 14.244,35.708 C14.3400005,35.0119965 14.483999,34.3280034 14.676,33.656 C14.8200007,32.8879962 15.0119988,32.1320037 15.252,31.388 C15.4920012,30.6439963 15.7559986,29.8880038 16.044,29.12 C16.5240024,28.0159945 17.0999966,26.9120055 17.772,25.808 C18.4440034,24.7039945 19.4519933,24.0080014 20.796,23.72 C21.2280022,23.6239995 21.6599978,23.6119996 22.092,23.684 C22.5240022,23.7560004 22.6920005,24.0799971 22.596,24.656 C22.4999995,25.3280034 22.2240023,26.0119965 21.768,26.708 C21.3119977,27.4040035 20.8920019,28.0159974 20.508,28.544 C20.0759978,29.1680031 19.6920017,29.7679971 19.356,30.344 C19.0199983,30.9200029 18.7320012,31.5679964 18.492,32.288 C18.2519988,33.1040041 18.0480008,33.907996 17.88,34.7 C17.7119992,35.492004 17.532001,36.2959959 17.34,37.112 C17.0519986,38.6000074 16.7760013,40.147992 16.512,41.756 C16.2479987,43.364008 16.2359988,44.9359923 16.476,46.472 C16.5720005,47.0480029 16.7519987,47.6719966 17.016,48.344 C17.2800013,49.0160034 17.6519976,49.5439981 18.132,49.928 C18.6600026,50.3120019 19.223997,50.3840012 19.824,50.144 C20.424003,49.9039988 20.9399978,49.6160017 21.372,49.28 C21.9000026,48.8479978 22.367998,48.3440029 22.776,47.768 C23.184002,47.1919971 23.5799981,46.6160029 23.964,46.04 C24.3480019,45.3679966 24.7319981,44.6720036 25.116,43.952 C25.5000019,43.2319964 25.8599983,42.5120036 26.196,41.792 C26.3400007,41.5039986 26.4839993,41.1320023 26.628,40.676 C26.7720007,40.2199977 26.9279992,39.788002 27.096,39.38 C27.2640008,38.971998 27.4319992,38.6360013 27.6,38.372 C27.7680008,38.1079987 27.9239993,37.9999998 28.068,38.048 C28.3080012,38.1440005 28.4040002,38.287999 28.356,38.48 C28.3079998,38.672001 28.2120007,38.9119986 28.068,39.2 C27.9239993,39.5360017 27.7800007,39.8599984 27.636,40.172 C27.4919993,40.4840016 27.3480007,40.8319981 27.204,41.216 C26.9639988,41.7920029 26.7120013,42.379997 26.448,42.98 C26.1839987,43.580003 25.8840017,44.1679971 25.548,44.744 C25.0199974,45.752005 24.4200034,46.7719948 23.748,47.804 C23.0759966,48.8360052 22.2600048,49.6879966 21.3,50.36 C20.3399952,51.0320034 19.3080055,51.2960007 18.204,51.152 C17.0999945,51.0079993 16.1400041,50.5040043 15.324,49.64 C14.9399981,49.2079978 14.6160013,48.7280026 14.352,48.2 C14.0879987,47.6719974 13.860001,47.1440026 13.668,46.616 C13.2839981,45.607995 13.0800001,44.5880052 13.056,43.556 C13.0319999,42.5239948 13.0679995,41.7680024 13.164,41.288 Z M21.084,25.664 L20.22,27.392 C20.2680002,27.4400002 20.3999989,27.3320013 20.616,27.068 C20.8320011,26.8039987 21.035999,26.5160016 21.228,26.204 C21.420001,25.8919984 21.5879993,25.5680017 21.732,25.232 C21.8760007,24.8959983 21.9240002,24.6800005 21.876,24.584 C21.7799995,24.584 21.6480008,24.7159987 21.48,24.98 C21.3119992,25.2440013 21.1800005,25.471999 21.084,25.664 Z M34.764,41.288 C34.8120002,40.7119971 34.8959994,40.1360029 35.016,39.56 C35.1360006,38.9839971 35.2199998,38.4320026 35.268,37.904 C35.3160002,37.4239976 35.435999,36.9080028 35.628,36.356 C35.820001,35.8039972 35.9999992,35.2520028 36.168,34.7 C36.3360008,34.1479972 36.4919993,33.6080026 36.636,33.08 C36.7800007,32.5519974 36.8280002,32.0960019 36.78,31.712 C36.2999976,31.9520012 35.8920017,32.3959968 35.556,33.044 C35.2199983,33.6920032 34.8840017,34.2319978 34.548,34.664 C34.1159978,35.1920026 33.6480025,35.7199974 33.144,36.248 C32.6399975,36.7760026 32.1240026,37.3039974 31.596,37.832 C31.2599983,38.1680017 30.8040029,38.539998 30.228,38.948 C29.6519971,39.356002 29.0760029,39.6439992 28.5,39.812 C27.9239971,39.9800008 27.4080023,39.9560011 26.952,39.74 C26.4959977,39.5239989 26.2200005,38.9840043 26.124,38.12 C25.9799993,36.5839923 26.1839972,35.0840073 26.736,33.62 C27.2880028,32.1559927 27.7079986,30.6800074 27.996,29.192 C28.1400007,28.4719964 28.3199989,27.716004 28.536,26.924 C28.7520011,26.131996 28.8360002,25.3760036 28.788,24.656 C28.7399998,23.9839966 28.8719984,23.4920016 29.184,23.18 C29.4960016,22.8679984 29.9879966,22.8319988 30.66,23.072 C31.3800036,23.3120012 31.8479989,23.6959974 32.064,24.224 C32.2800011,24.7520026 32.3760001,25.3519966 32.352,26.024 C32.3279999,26.6960034 32.2080011,27.3679966 31.992,28.04 C31.7759989,28.7120034 31.5960007,29.2879976 31.452,29.768 C31.2119988,30.4880036 30.9720012,31.1959965 30.732,31.892 C30.4919988,32.5880035 30.3000007,33.2959964 30.156,34.016 C30.1079998,34.208001 30.0480004,34.4839982 29.976,34.844 C29.9039996,35.2040018 29.868,35.5519983 29.868,35.888 C29.868,36.2240017 29.9399993,36.4759992 30.084,36.644 C30.2280007,36.8120008 30.5159978,36.800001 30.948,36.608 C31.4280024,36.3679988 31.9559971,35.9600029 32.532,35.384 C33.1080029,34.8079971 33.6719972,34.1720035 34.224,33.476 C34.7760028,32.7799965 35.2919976,32.0840035 35.772,31.388 C36.2520024,30.6919965 36.6359986,30.1280022 36.924,29.696 C37.2120014,29.2159976 37.5119984,28.7000028 37.824,28.148 C38.1360016,27.5959972 38.5559974,27.224001 39.084,27.032 C39.5160022,26.9359995 39.9839975,26.9599993 40.488,27.104 C40.9920025,27.2480007 41.2919995,27.5839974 41.388,28.112 C41.4360002,28.4960019 41.4000006,29.0479964 41.28,29.768 C41.1599994,30.4880036 41.004001,31.243996 40.812,32.036 C40.619999,32.828004 40.4160011,33.5719965 40.2,34.268 C39.9839989,34.9640035 39.8520002,35.4799983 39.804,35.816 C39.5639988,37.208007 39.3360011,38.599993 39.12,39.992 C38.9039989,41.384007 38.6760012,42.775993 38.436,44.168 C38.3399995,44.8400034 38.2680002,45.4639971 38.22,46.04 C38.1719998,46.6160029 38.3399981,47.2159969 38.724,47.84 C39.0600017,48.4160029 39.4559977,48.5600014 39.912,48.272 C40.3680023,47.9839986 40.7879981,47.6960014 41.172,47.408 C42.2280053,46.5919959 43.1159964,45.6560053 43.836,44.6 L45.996,41.432 C46.3800019,40.9519976 46.667999,40.4360028 46.86,39.884 C47.052001,39.3319972 47.3399981,38.8160024 47.724,38.336 C47.8200005,38.2399995 47.9519992,38.1320006 48.12,38.012 C48.2880008,37.8919994 48.4199995,37.927999 48.516,38.12 C48.6120005,38.312001 48.5880007,38.5399987 48.444,38.804 C48.2999993,39.0680013 48.1800005,39.2719993 48.084,39.416 C47.3639964,40.6640062 46.608004,41.9239936 45.816,43.196 C45.023996,44.4680064 44.1480048,45.6559945 43.188,46.76 C42.5159966,47.5760041 41.6520053,48.3439964 40.596,49.064 C39.5399947,49.7840036 38.4360058,49.9520019 37.284,49.568 C36.5159962,49.2319983 35.8920024,48.6320043 35.412,47.768 C34.6439962,46.6639945 34.3199994,45.608005 34.44,44.6 C34.5600006,43.591995 34.6679995,42.488006 34.764,41.288 Z M56.652,33.368 C55.8359959,34.6160062 55.0680036,35.8879935 54.348,37.184 C53.6279964,38.4800065 52.9320034,39.7999933 52.26,41.144 C51.9239983,41.8640036 51.5880017,42.5719965 51.252,43.268 C50.9159983,43.9640035 50.6040014,44.6719964 50.316,45.392 L50.028,46.4 C49.9319995,46.7360017 49.8360005,47.0959981 49.74,47.48 C49.6919998,47.7200012 49.6440002,48.0199982 49.596,48.38 C49.5479998,48.7400018 49.4520007,49.0399988 49.308,49.28 C48.9719983,49.7120022 48.5160029,49.9639996 47.94,50.036 C47.3639971,50.1080004 46.8600022,49.9520019 46.428,49.568 C45.9479976,49.1839981 45.6480006,48.6080038 45.528,47.84 C45.4079994,47.0719962 45.348,46.3760031 45.348,45.752 C45.2999998,44.2159923 45.3479993,42.6920076 45.492,41.18 C45.6360007,39.6679924 45.8279988,38.1440077 46.068,36.608 C46.260001,35.1679928 46.4999986,33.7280072 46.788,32.288 C47.0760014,30.8479928 47.4839974,29.432007 48.012,28.04 C48.204001,27.5599976 48.4319987,27.0080031 48.696,26.384 C48.9600013,25.7599969 49.3319976,25.3280012 49.812,25.088 C50.1960019,24.9439993 50.6159977,24.967999 51.072,25.16 C51.5280023,25.352001 51.851999,25.6399981 52.044,26.024 C52.2840012,26.6000029 52.2960011,27.2359965 52.08,27.932 C51.8639989,28.6280035 51.7080005,29.2639971 51.612,29.84 C51.419999,30.5600036 51.2520007,31.2919963 51.108,32.036 C50.9639993,32.7800037 50.8200007,33.5359962 50.676,34.304 C50.5319993,35.0720038 50.4000006,35.8279963 50.28,36.572 C50.1599994,37.3160037 50.0520005,38.0719962 49.956,38.84 C49.8599995,39.6080038 49.7520006,40.4119958 49.632,41.252 C49.5119994,42.0920042 49.5239993,42.8959962 49.668,43.664 C50.3880036,42.655995 50.9639978,41.5280062 51.396,40.28 C51.8280022,39.0319938 52.3559969,37.8560055 52.98,36.752 L53.988,35.024 C54.3240017,34.4479971 54.6839981,33.8720029 55.068,33.296 C55.3560014,32.8159976 55.6679983,32.276003 56.004,31.676 C56.3400017,31.075997 56.7479976,30.6080017 57.228,30.272 C57.5640017,30.0319988 57.9599977,29.9239999 58.416,29.948 C58.8720023,29.9720001 59.2679983,30.1039988 59.604,30.344 C60.0840024,30.7280019 60.3719995,31.2079971 60.468,31.784 C60.5640005,32.3600029 60.5880002,32.9119974 60.54,33.44 C60.4919998,34.1120034 60.3840008,34.7599969 60.216,35.384 C60.0479992,36.0080031 59.8920007,36.6319969 59.748,37.256 C59.6519995,37.8320029 59.5680004,38.4319969 59.496,39.056 C59.4239996,39.6800031 59.292001,40.2559974 59.1,40.784 C59.4840019,40.1599969 59.7959988,39.5120034 60.036,38.84 C60.2760012,38.1679966 60.5159988,37.5200031 60.756,36.896 C61.0920017,36.2239966 61.4159984,35.5400035 61.728,34.844 C62.0400016,34.1479965 62.3879981,33.4640034 62.772,32.792 C63.5400038,31.4479933 64.3439958,30.1280065 65.184,28.832 C66.0240042,27.5359935 66.8999954,26.2640062 67.812,25.016 C68.1960019,24.5359976 68.5679982,24.1160018 68.928,23.756 C69.2880018,23.3959982 69.7799969,23.120001 70.404,22.928 C70.9320026,22.7839993 71.4479975,22.7359998 71.952,22.784 C72.4560025,22.8320002 72.9239978,23.0479981 73.356,23.432 C73.8840026,23.8640022 74.2679988,24.4039968 74.508,25.052 C74.7480012,25.7000032 74.8799999,26.3959963 74.904,27.14 C74.9280001,27.8840037 74.9040004,28.6279963 74.832,29.372 C74.7599996,30.1160037 74.6760005,30.7999969 74.58,31.424 C74.0519974,34.6400161 73.4760031,37.7119854 72.852,40.64 C72.659999,41.3600036 72.4920007,42.0919963 72.348,42.836 C72.2039993,43.5800037 72.132,44.3359962 72.132,45.104 C72.132,45.6320026 72.1559998,46.3039959 72.204,47.12 C72.2520002,47.9360041 72.4679981,48.5839976 72.852,49.064 C73.2360019,49.5920026 73.6799975,49.7360012 74.184,49.496 C74.6880025,49.2559988 75.1559978,48.8720026 75.588,48.344 C76.0200022,47.8159974 76.3919984,47.2640029 76.704,46.688 C77.0160016,46.1119971 77.2199995,45.728001 77.316,45.536 C77.6520017,44.8639966 77.9639986,44.1920034 78.252,43.52 C78.5400014,42.8479966 78.8519983,42.1760034 79.188,41.504 C79.3320007,41.1679983 79.4759993,40.7600024 79.62,40.28 C79.7640007,39.7999976 79.9079993,39.3440022 80.052,38.912 C80.1960007,38.4799978 80.3519992,38.1080016 80.52,37.796 C80.6880008,37.4839984 80.867999,37.3519998 81.06,37.4 C81.3480014,37.4480002 81.4800001,37.6279984 81.456,37.94 C81.4319999,38.2520016 81.3360008,38.611998 81.168,39.02 C80.9999992,39.428002 80.8080011,39.8479978 80.592,40.28 C80.3759989,40.7120022 80.2200005,41.0959983 80.124,41.432 C79.8839988,42.2000038 79.6200014,42.9559963 79.332,43.7 C79.0439986,44.4440037 78.7080019,45.1759964 78.324,45.896 C77.7959974,47.0000055 77.1600037,48.0439951 76.416,49.028 C75.6719963,50.0120049 74.6760062,50.6479986 73.428,50.936 C72.6599962,51.0800007 71.9880029,51.056001 71.412,50.864 C70.8359971,50.671999 70.3560019,50.3600022 69.972,49.928 C69.5879981,49.4959978 69.2760012,48.980003 69.036,48.38 C68.7959988,47.779997 68.6040007,47.1440034 68.46,46.472 C68.1239983,44.8879921 68.0999986,43.292008 68.388,41.684 C68.6760014,40.075992 68.9399988,38.4800079 69.18,36.896 C69.4680014,35.3119921 69.8039981,33.6800084 70.188,32 C70.5720019,30.3199916 70.764,28.7120077 70.764,27.176 C70.764,26.8879986 70.7520001,26.6000014 70.728,26.312 C70.7039999,26.0239986 70.6440005,25.7720011 70.548,25.556 C70.4519995,25.3399989 70.308001,25.2080002 70.116,25.16 C69.923999,25.1119998 69.6600017,25.2319986 69.324,25.52 C68.6999969,26.0480026 68.1600023,26.611997 67.704,27.212 C67.2479977,27.812003 66.8280019,28.4479966 66.444,29.12 C64.7639916,31.712013 63.2640066,34.3999861 61.944,37.184 C60.6239934,39.9680139 59.6040036,42.8719849 58.884,45.896 C58.7879995,46.2800019 58.6920005,46.7239975 58.596,47.228 C58.4999995,47.7320025 58.3320012,48.1519983 58.092,48.488 C57.899999,48.7760014 57.5640024,49.0519987 57.084,49.316 C56.6039976,49.5800013 56.1960017,49.7599995 55.86,49.856 C55.5719986,49.9040002 55.3440008,49.7360019 55.176,49.352 C55.0079992,48.9679981 54.9000002,48.5240025 54.852,48.02 C54.8039998,47.5159975 54.78,47.0120025 54.78,46.508 L54.78,45.464 C54.78,44.455995 54.875999,43.448005 55.068,42.44 L55.644,39.416 C55.836001,38.4559952 56.0399989,37.4480053 56.256,36.392 C56.4720011,35.3359947 56.6039998,34.3280048 56.652,33.368 Z M97.404,11.12 C96.7319966,12.512007 96.0600034,13.8439936 95.388,15.116 C94.7159966,16.3880064 93.9720041,17.6479938 93.156,18.896 C92.3879962,20.1440062 91.608004,21.367994 90.816,22.568 C90.023996,23.768006 89.1720046,24.9439942 88.26,26.096 C87.4439959,27.0560048 86.7000034,27.9679957 86.028,28.832 C85.3559966,29.6960043 84.6600036,30.5359959 83.94,31.352 C83.6999988,31.6400014 83.5560002,31.9159987 83.508,32.18 C83.4599998,32.4440013 83.4120002,32.7679981 83.364,33.152 C82.9799981,35.360011 82.8479994,37.45999 82.968,39.452 C83.0880006,41.44401 83.2679988,43.4959894 83.508,45.608 C83.6040005,46.1360026 83.7719988,46.6639974 84.012,47.192 C84.2520012,47.7200026 84.6599971,48.1039988 85.236,48.344 C85.8120029,48.5840012 86.3639974,48.608001 86.892,48.416 C87.4200026,48.223999 87.8999978,47.9480018 88.332,47.588 C88.7640022,47.2279982 89.1599982,46.8080024 89.52,46.328 C89.8800018,45.8479976 90.2039986,45.3920022 90.492,44.96 C90.8760019,44.3839971 91.2359983,43.7840031 91.572,43.16 C91.9080017,42.5359969 92.2199986,41.8880034 92.508,41.216 C92.6520007,40.9279986 92.8079992,40.5560023 92.976,40.1 C93.1440008,39.6439977 93.323999,39.2000022 93.516,38.768 C93.708001,38.3359978 93.899999,37.9760014 94.092,37.688 C94.284001,37.3999986 94.4519993,37.3039995 94.596,37.4 C94.7400007,37.4960005 94.8000001,37.6879986 94.776,37.976 C94.7519999,38.2640014 94.6800006,38.5759983 94.56,38.912 C94.4399994,39.2480017 94.2960008,39.5959982 94.128,39.956 C93.9599992,40.3160018 93.8280005,40.6159988 93.732,40.856 L92.724,42.872 C92.3879983,43.5440034 92.0280019,44.1919969 91.644,44.816 C91.3559986,45.2960024 91.008002,45.8239971 90.6,46.4 C90.191998,46.9760029 89.7480024,47.5159975 89.268,48.02 C88.7879976,48.5240025 88.2600029,48.9559982 87.684,49.316 C87.1079971,49.6760018 86.5080031,49.8799998 85.884,49.928 C85.2119966,50.0240005 84.6000028,49.9400013 84.048,49.676 C83.4959972,49.4119987 82.9920023,49.0640022 82.536,48.632 C82.0799977,48.1999978 81.6840017,47.7080028 81.348,47.156 C81.0119983,46.6039972 80.748001,46.0400029 80.556,45.464 C79.9319969,43.8319918 79.5840004,42.320007 79.512,40.928 C79.4399996,39.535993 79.4519995,38.0960074 79.548,36.608 C79.6440005,35.0239921 79.7759992,33.4640077 79.944,31.928 C80.1120008,30.3919923 80.3399986,28.8320079 80.628,27.248 C80.7240005,26.5279964 80.8319994,25.7960037 80.952,25.052 C81.0720006,24.3079963 81.2519988,23.5760036 81.492,22.856 C81.7320012,22.0399959 81.9839987,21.2600037 82.248,20.516 C82.5120013,19.7719963 82.7639988,19.0160038 83.004,18.248 C83.9640048,15.3199854 85.1039934,12.5360132 86.424,9.896 C87.7440066,7.2559868 89.5319887,4.83201104 91.788,2.624 C92.4120031,1.99999688 93.1319959,1.388003 93.948,0.788 C94.7640041,0.187997 95.6519952,-0.04000072 96.612,0.104 C97.7640058,0.24800072 98.4959984,0.81199508 98.808,1.796 C99.1200016,2.78000492 99.2040007,3.89599376 99.06,5.144 C98.9159993,6.39200624 98.6520019,7.59199424 98.268,8.744 C97.8839981,9.89600576 97.596001,10.6879978 97.404,11.12 Z M97.548,2.048 C96.9239969,1.75999856 96.3240029,1.78399832 95.748,2.12 C95.1719971,2.45600168 94.6920019,2.81599808 94.308,3.2 C93.0599938,4.44800624 92.1120032,5.7319934 91.464,7.052 C90.8159968,8.3720066 90.2040029,9.65599376 89.628,10.904 C88.8599962,12.4400077 88.1880029,14.011992 87.612,15.62 C87.0359971,17.228008 86.5320022,18.8719916 86.1,20.552 C85.907999,21.3680041 85.716001,22.1599962 85.524,22.928 C85.331999,23.6960038 85.1160012,24.4879959 84.876,25.304 C84.683999,26.0240036 84.4680012,26.8039958 84.228,27.644 C83.9879988,28.4840042 83.9159995,29.2879962 84.012,30.056 C84.4440022,29.8159988 84.8519981,29.4440025 85.236,28.94 C85.6200019,28.4359975 85.9559986,27.9920019 86.244,27.608 C87.4920062,26.0719923 88.6559946,24.5480076 89.736,23.036 C90.8160054,21.5239924 91.8119954,20.0000077 92.724,18.464 L94.596,15.296 C95.2200031,14.2399947 95.7719976,13.1600055 96.252,12.056 C96.444001,11.6239978 96.7079983,10.9160049 97.044,9.932 C97.3800017,8.94799508 97.6799987,7.9160054 97.944,6.836 C98.2080013,5.7559946 98.34,4.76000456 98.34,3.848 C98.34,2.93599544 98.0760026,2.33600144 97.548,2.048 Z M110.148,38.984 C110.244,38.5999981 110.351999,38.2640014 110.472,37.976 C110.592001,37.6879986 110.771999,37.4240012 111.012,37.184 C111.300001,36.8479983 111.48,36.8359984 111.552,37.148 C111.624,37.4600016 111.612,37.711999 111.516,37.904 C110.891997,39.4400077 110.280003,40.8679934 109.68,42.188 C109.079997,43.5080066 108.276005,44.7919938 107.268,46.04 C106.643997,46.8560041 105.888004,47.5879968 105,48.236 C104.111996,48.8840032 103.164005,49.3639984 102.156,49.676 C101.147995,49.9880016 100.116005,50.0960005 99.06,50 C98.0039947,49.9039995 97.0200046,49.5200034 96.108,48.848 C95.0039945,48.0799962 94.1760028,47.096006 93.624,45.896 C93.0719972,44.695994 92.7720002,43.4480065 92.724,42.152 C92.6279995,40.7119928 92.7119987,39.2120078 92.976,37.652 C93.2400013,36.0919922 93.6359974,34.6640065 94.164,33.368 C94.4040012,32.6959966 94.6799984,32.0480031 94.992,31.424 C95.3040016,30.7999969 95.6519981,30.2240026 96.036,29.696 C96.9960048,28.4479938 97.9679951,27.3560047 98.952,26.42 C99.9360049,25.4839953 101.171993,25.016 102.66,25.016 C103.380004,24.9679998 104.123996,25.0879986 104.892,25.376 C105.516003,25.6640014 105.995998,26.0839972 106.332,26.636 C106.668002,27.1880028 106.895999,27.7999966 107.016,28.472 C107.136001,29.1440034 107.148,29.8279965 107.052,30.524 C106.956,31.2200035 106.764001,31.8799969 106.476,32.504 C106.091998,33.3200041 105.660002,34.1479958 105.18,34.988 C104.699998,35.8280042 104.148003,36.5599969 103.524,37.184 C102.947997,37.8080031 102.360003,38.3479977 101.76,38.804 C101.159997,39.2600023 100.404005,39.4400005 99.492,39.344 C98.6759959,39.2479995 97.9800029,38.9600024 97.404,38.48 C97.2599993,38.4319998 97.1400005,38.3600005 97.044,38.264 C96.851999,38.1679995 96.756,38.1439998 96.756,38.192 C96.7079998,38.4800014 96.6600002,38.7799984 96.612,39.092 C96.5639998,39.4040016 96.5160002,39.7279983 96.468,40.064 C96.3719995,41.0240048 96.3120001,41.9719953 96.288,42.908 C96.2639999,43.8440047 96.4199983,44.7679954 96.756,45.68 C96.9000007,46.0160017 97.0799989,46.3999978 97.296,46.832 C97.5120011,47.2640022 97.7639986,47.6719981 98.052,48.056 C98.3400014,48.4400019 98.6759981,48.7519988 99.06,48.992 C99.4440019,49.2320012 99.8519978,49.3040005 100.284,49.208 C100.956003,49.1599998 101.735996,48.9200022 102.624,48.488 C103.512004,48.0559978 104.411995,47.4080043 105.324,46.544 C106.236005,45.6799957 107.111996,44.6240062 107.952,43.376 C108.792004,42.1279938 109.523997,40.6640084 110.148,38.984 Z M96.5674038,36.0293104 C96.5787474,36.0535547 96.5936128,36.1024512 96.612,36.176 C96.6600002,36.368001 96.7559993,36.6199984 96.9,36.932 C97.0440007,37.2440016 97.2479987,37.5559984 97.512,37.868 C97.7760013,38.1800016 98.1239978,38.3839995 98.556,38.48 C99.1800031,38.672001 99.8279966,38.5400023 100.5,38.084 C101.172003,37.6279977 101.699998,37.2080019 102.084,36.824 C103.140005,35.815995 104.003997,34.6640065 104.676,33.368 C105.012002,32.6959966 105.311999,31.9760038 105.576,31.208 C105.840001,30.4399962 105.924,29.6960036 105.828,28.976 C105.732,28.4479974 105.576001,27.884003 105.36,27.284 C105.143999,26.683997 104.748003,26.3360005 104.172,26.24 C103.547997,26.1439995 102.912003,26.299998 102.264,26.708 C101.615997,27.116002 101.100002,27.5119981 100.716,27.896 C99.6119945,29.0000055 98.7720029,30.2839927 98.196,31.748 C97.6299543,33.1866995 97.0870941,34.6137892 96.5674038,36.0293104 L96.5674038,36.0293104 Z" id="path-2"></path>
    </defs>
    <g id="Page-1" stroke="none" stroke-width="1" fill="none" fill-rule="evenodd">
        <g id="buecherwuermle_LogomitSchrift" transform="translate(0.000000, 1.000000)">
            <g id="Group" transform="translate(154.000000, 0.000000)">
                <path d="M1.7,12.8 C1.7,12.8 6.5,11.5 12.4,21 C18.3,30.5 13.7,40.5 12.2,52.7 C10.7,64.9 11,70 13.5,74.9 C16,79.7 17.8,82.1 20.3,81.7 C22.8,81.3 25.8,78.4 26.5,74.2 C27.2,70 25,60.9 25.5,55.7 C26,50.5 26,43.4 31,42 C36,40.7 39,45.7 40.3,50.7 C41.6,55.7 41,62.7 43.1,68.7 C45.3,74.7 48.9,77.5 52.1,77.7 C55.3,77.9 59.1,76.2 60.3,69.4 C61.5,62.6 59.6,50.1 58,41.6 C56.3,33.1 55.8,18.9 59.8,12.6 C63.8,6.3 68.3,1.3 76.1,3.8 C83.9,6.3 89.8,9.8 93.3,15.5 C96.8,21.2 93.8,22.5 91.8,23.3 C89.8,24.1 75.1,25.1 72.5,28.8 C69.8,32.5 68,43.1 68.2,50 C68.4,56.8 70,66.2 67.5,75 C65,83.8 63,87.2 58.8,89.5 C54.6,91.8 51.1,93.2 46.6,89.7 C42.1,86.2 41.3,82 38.6,78 C35.9,74 32.8,71.2 31.9,78.3 C31.1,85.5 30.4,90.5 26.2,94 C22,97.5 14.7,99.5 11,96 C7.3,92.5 1.5,84.3 1.5,76.2 C1.5,68.1 4.3,55 5.8,47.5 C7.3,40 9.8,35.2 7.3,29 C4.8,22.8 3,23.2 1.1,17.8 C-0.8,12.4 1.7,12.8 1.7,12.8 L1.7,12.8 Z" id="Path" stroke="#000000" stroke-width="2" fill="#F07F05" fill-rule="nonzero"></path>
                <g transform="translate(0.000000, 12.000000)" fill="#182EA4" fill-rule="nonzero" id="Path" stroke="#000000">
                    <path d="M8,22.8 C8,22.8 9.5,21.5 11.2,21.5 C12.9,21.5 14.7,22.7 14.7,22.7 L12.2,39 C12.2,39 9.5,36 7.7,37.2 C5.9,38.4 4.9,39.9 4.9,39.9 L8,22.8 L8,22.8 Z M2.5,53.1 C2.5,53.1 4,51.1 6.5,50.9 C9,50.7 10.8,52.1 10.8,52.1 C10.8,52.1 11,54.3 12,56.8 C13,59.3 13.8,61.8 13.8,61.8 C13.8,61.8 12.3,60.8 9.6,62.5 C6.9,64.2 3.8,72 3.8,72 C3.8,72 1.5,65.5 2,62.5 C2.5,59.5 2.5,53.1 2.5,53.1 Z M17.3,67.9 C17.3,67.9 15.5,69.9 14.8,72.7 C14.1,75.5 15.3,84.7 15.3,84.7 C15.3,84.7 20.5,85.7 22.8,84.2 C25.1,82.7 27.5,79.9 27.5,79.9 C27.5,79.9 22,76.9 22,74.6 C22,72.3 22.7,68.9 22.7,68.9 C22.7,68.9 22,69.7 19.9,69.2 C17.8,68.7 17.3,67.9 17.3,67.9 L17.3,67.9 Z M26.8,60.4 C26.8,60.4 26.5,62.4 28.1,63.6 C29.8,64.8 32.8,63.3 32.8,63.3 L33.3,62 C33.3,62 29.1,52.7 30,47.8 C30.8,43 32,38.3 33.2,36.3 C34.4,34.3 36.5,31.6 36.5,31.6 C36.5,31.6 33.7,28.3 30.5,29.9 C27.3,31.6 25.5,38.2 25.5,41.4 C25.5,44.6 26.5,49.4 26.8,53.9 C27.1,58.4 26.8,60.4 26.8,60.4 Z M35.3,61.8 C35.3,61.8 37.1,54 38.6,52 C40.1,50 41.8,49.3 41.8,49.3 C41.8,49.3 42.5,55.3 44.1,58 C45.8,60.7 46.4,61.8 46.4,61.8 C46.4,61.8 43.4,64.6 42.4,66.6 C41.4,68.6 41.2,69.9 41.2,69.9 C41.2,69.9 39.5,64.1 37.4,62.9 L35.3,61.8 L35.3,61.8 Z M54.5,65.9 C54.5,65.9 54.7,68.2 56.3,71.1 C57.9,74 61.6,75.3 61.6,75.3 C61.6,75.3 65.1,73.1 66.4,68.1 C67.7,63.1 68.2,56.3 68.2,56.3 C68.2,56.3 66.2,57 63.9,55.5 C61.6,54 60.4,52 60.4,52 C60.4,52 61.4,56.8 58.9,60.5 C56.5,64.1 54.5,65.9 54.5,65.9 L54.5,65.9 Z M58.8,31.1 C58.8,31.1 59.3,32.8 61.5,34.1 C63.7,35.4 68,35.1 68,35.1 C68,35.1 68.7,26.3 69.8,23.3 C70.9,20.3 72,17.8 72,17.8 C72,17.8 67.3,16.5 64,13 C60.7,9.5 60,7.2 60,5.3 L60,0.6 C60,0.6 57.3,8.6 57.2,13.3 C57,18 57.2,24.1 57.9,26.8 C58.5,29.4 58.8,31.1 58.8,31.1 L58.8,31.1 Z M5.8,13.1 C5.8,13.1 7.3,10.4 8.8,9.8 C10.3,9.2 12.5,10 12.5,10 C12.5,10 5.5,-1.2 1.7,0.8 C-2.2,2.8 5.8,13.1 5.8,13.1 L5.8,13.1 Z"></path>
                </g>
                <g opacity="0.42" transform="translate(0.000000, 3.000000)" fill="#FFFFFF" fill-rule="nonzero" id="Path">
                    <path d="M4,9.9 C4,9.9 5.2,16.1 6.7,18.1 C8.2,20.1 10.9,23.6 10.4,30.9 C9.9,38.2 9.4,40.6 8.7,44.7 C8,48.9 6.4,54.4 6,57.7 C5.7,61 4.2,70.4 5.2,74.5 C6.2,78.6 7,83.5 9,86.2 C11,88.9 12.2,91.2 17,90.7 C21.8,90.2 24.8,87.9 26.2,86 C27.5,84.2 29.2,79.8 29.9,76.2 C30.6,72.5 29.6,68.4 32.6,67.4 C35.6,66.4 38.1,68.2 40.3,71.2 C42.5,74.2 43.3,79.4 46.8,82.2 C50.3,85 53.3,85.7 57,83.7 C60.7,81.7 63,76.9 64.3,72.7 C65.6,68.5 67,64.9 68,63.9 C69,62.9 69,66.4 69,66.4 C69,66.4 65.3,79.9 63.8,81.9 C62.3,83.9 56,88.9 52.8,88.4 C49.6,87.9 46.3,87.7 43,81.7 C39.7,75.7 36.3,70.9 35,71 C33.7,71.1 31.7,79.8 30.5,84 C29.3,88.2 24.3,93.3 19.7,94.3 C15,95.3 8,91.5 5.5,86.3 C3,81.1 1.3,72.1 2.3,65.8 C3.3,59.5 6.5,44.5 7.5,40.1 C8.5,35.7 9.3,28.9 7.7,25.6 C6,22.3 2.5,17.4 1.5,14.4 C0.5,11.4 0.7,10.4 1.8,9.6 C2.8,8.9 4,9.9 4,9.9"></path>
                    <path d="M60.8,62.1 C60.8,62.1 63.3,63.1 64,60.4 C64.7,57.7 61.5,44.9 61.5,43.4 C61.5,41.9 60.7,32.7 60.7,29.9 C60.7,27.1 58.9,19.2 60.5,16.4 C62.2,13.6 62.7,9.4 65.5,6.9 C68.3,4.4 76.2,0.6 76.2,0.6 C76.2,0.6 72.4,-0.6 68.4,0.9 C64.4,2.4 61.4,5.6 59.9,9.4 C58.4,13.2 56.7,21.7 56.9,25.2 C57.1,28.7 57.4,34.5 58.6,41 C59.8,47.5 60.8,51.2 60.8,55.2 L60.8,62.1 L60.8,62.1 Z"></path>
                </g>
                <g transform="translate(0.000000, 12.000000)" id="Path" stroke="#000000">
                    <path d="M8,22.8 C8,22.8 9.5,21.5 11.2,21.5 C12.9,21.5 14.7,22.7 14.7,22.7 L12.2,39 C12.2,39 9.5,36 7.7,37.2 C5.9,38.4 4.9,39.9 4.9,39.9 L8,22.8 L8,22.8 Z M2.5,53.1 C2.5,53.1 4,51.1 6.5,50.9 C9,50.7 10.8,52.1 10.8,52.1 C10.8,52.1 11,54.3 12,56.8 C13,59.3 13.8,61.8 13.8,61.8 C13.8,61.8 12.3,60.8 9.6,62.5 C6.9,64.2 3.8,72 3.8,72 C3.8,72 1.5,65.5 2,62.5 C2.5,59.5 2.5,53.1 2.5,53.1 Z M17.3,67.9 C17.3,67.9 15.5,69.9 14.8,72.7 C14.1,75.5 15.3,84.7 15.3,84.7 C15.3,84.7 20.5,85.7 22.8,84.2 C25.1,82.7 27.5,79.9 27.5,79.9 C27.5,79.9 22,76.9 22,74.6 C22,72.3 22.7,68.9 22.7,68.9 C22.7,68.9 22,69.7 19.9,69.2 C17.8,68.7 17.3,67.9 17.3,67.9 L17.3,67.9 Z M26.8,60.4 C26.8,60.4 26.5,62.4 28.1,63.6 C29.8,64.8 32.8,63.3 32.8,63.3 L33.3,62 C33.3,62 29.1,52.7 30,47.8 C30.8,43 32,38.3 33.2,36.3 C34.4,34.3 36.5,31.6 36.5,31.6 C36.5,31.6 33.7,28.3 30.5,29.9 C27.3,31.6 25.5,38.2 25.5,41.4 C25.5,44.6 26.5,49.4 26.8,53.9 C27.1,58.4 26.8,60.4 26.8,60.4 Z M35.3,61.8 C35.3,61.8 37.1,54 38.6,52 C40.1,50 41.8,49.3 41.8,49.3 C41.8,49.3 42.5,55.3 44.1,58 C45.8,60.7 46.4,61.8 46.4,61.8 C46.4,61.8 43.4,64.6 42.4,66.6 C41.4,68.6 41.2,69.9 41.2,69.9 C41.2,69.9 39.5,64.1 37.4,62.9 L35.3,61.8 L35.3,61.8 Z M54.5,65.9 C54.5,65.9 54.7,68.2 56.3,71.1 C57.9,74 61.6,75.3 61.6,75.3 C61.6,75.3 65.1,73.1 66.4,68.1 C67.7,63.1 68.2,56.3 68.2,56.3 C68.2,56.3 66.2,57 63.9,55.5 C61.6,54 60.4,52 60.4,52 C60.4,52 61.4,56.8 58.9,60.5 C56.5,64.1 54.5,65.9 54.5,65.9 L54.5,65.9 Z M58.8,31.1 C58.8,31.1 59.3,32.8 61.5,34.1 C63.7,35.4 68,35.1 68,35.1 C68,35.1 68.7,26.3 69.8,23.3 C70.9,20.3 72,17.8 72,17.8 C72,17.8 67.3,16.5 64,13 C60.7,9.5 60,7.2 60,5.3 L60,0.6 C60,0.6 57.3,8.6 57.2,13.3 C57,18 57.2,24.1 57.9,26.8 C58.5,29.4 58.8,31.1 58.8,31.1 L58.8,31.1 Z M5.8,13.1 C5.8,13.1 7.3,10.4 8.8,9.8 C10.3,9.2 12.5,10 12.5,10 C12.5,10 5.5,-1.2 1.7,0.8 C-2.2,2.8 5.8,13.1 5.8,13.1 L5.8,13.1 Z"></path>
                </g>
                <path d="M91,16.4 C91,16.4 89.3,21.4 82.2,21.7 C75.4,22 72.5,18.4 72.5,18.4 L70.3,21.4 L73.3,16.6" id="Path" stroke="#000000" stroke-width="2" stroke-linecap="round" stroke-linejoin="round"></path>
                <path d="M1.7,12.8 C1.7,12.8 6.5,11.5 12.4,21 C18.3,30.5 13.7,40.5 12.2,52.7 C10.7,64.9 11,70 13.5,74.9 C16,79.7 17.8,82.1 20.3,81.7 C22.8,81.3 25.8,78.4 26.5,74.2 C27.2,70 25,60.9 25.5,55.7 C26,50.5 26,43.4 31,42 C36,40.7 39,45.7 40.3,50.7 C41.6,55.7 41,62.7 43.1,68.7 C45.3,74.7 48.9,77.5 52.1,77.7 C55.3,77.9 59.1,76.2 60.3,69.4 C61.5,62.6 59.6,50.1 58,41.6 C56.3,33.1 55.8,18.9 59.8,12.6 C63.8,6.3 68.3,1.3 76.1,3.8 C83.9,6.3 89.8,9.8 93.3,15.5 C96.8,21.2 93.8,22.5 91.8,23.3 C89.8,24.1 75.1,25.1 72.5,28.8 C69.8,32.5 68,43.1 68.2,50 C68.4,56.8 70,66.2 67.5,75 C65,83.8 63,87.2 58.8,89.5 C54.6,91.8 51.1,93.2 46.6,89.7 C42.1,86.2 41.3,82 38.6,78 C35.9,74 32.8,71.2 31.9,78.3 C31.1,85.5 30.4,90.5 26.2,94 C22,97.5 14.7,99.5 11,96 C7.3,92.5 1.5,84.3 1.5,76.2 C1.5,68.1 4.3,55 5.8,47.5 C7.3,40 9.8,35.2 7.3,29 C4.8,22.8 3,23.2 1.1,17.8 C-0.8,12.4 1.7,12.8 1.7,12.8 L1.7,12.8 Z" id="Path"></path>
                <g transform="translate(53.000000, 0.000000)" stroke="#000000">
                    <path d="M16.2,9.1 C16.2,9.1 7.2,5.1 3,6.6 C0.7,7.4 0.2,8.8 0.2,8.8" id="Path"></path>
                    <ellipse id="Oval" fill="#FFFFFF" fill-rule="nonzero" cx="21.3" cy="8.9" rx="5.2" ry="5"></ellipse>
                    <ellipse id="Oval" fill="#FFFFFF" fill-rule="nonzero" cx="30.6" cy="4.8" rx="5" ry="4.7"></ellipse>
                    <circle id="Oval" fill="#000000" fill-rule="nonzero" cx="23.3" cy="9.6" r="1"></circle>
                    <circle id="Oval" fill="#000000" fill-rule="nonzero" transform="translate(30.495000, 6.304000) rotate(-22.998000) translate(-30.495000, -6.304000) " cx="30.495" cy="6.304" r="1"></circle>
                </g>
            </g>
            <g id="Group" transform="translate(0.000000, 1.000000)" fill-rule="nonzero">
                <g id="Bcher">
                    <g>
                        <use fill="#000000" xlink:href="#path-1"></use>
                        <use fill="#393939" xlink:href="#path-1"></use>
                    </g>
                </g>
                <g transform="translate(232.000000, 18.000000)" id="rmle">
                    <g>
                        <use fill="#000000" xlink:href="#path-2"></use>
                        <use fill="#393939" xlink:href="#path-2"></use>
                    </g>
                </g>
            </g>
        </g>
    </g>
</svg>