<svg id="Ebene_1" xmlns="http://www.w3.org/2000/svg" width="96.5" height="99.2" viewBox="0 0 96.5 99.2"><style>.st0{display:none}.st1,.st2{stroke:#000;stroke-miterlimit:10}.st1{stroke-width:2;fill:#f07f05}.st2{fill:#182ea4}.st3{opacity:.42}.st4{fill:#fff}.st5,.st6{stroke:#000;stroke-miterlimit:10}.st5{fill:none}.st6{stroke-width:2;stroke-linecap:round;stroke-linejoin:round}.st6,.st7{fill:none}.st8,.st9{stroke:#000;stroke-miterlimit:10}.st8{stroke-width:2;stroke-linecap:round;fill:none}.st9{fill:url(#SVGID_1_)}.st10{fill:url(#SVGID_2_)}.st10,.st11,.st12,.st13{stroke:#000;stroke-miterlimit:10}.st12,.st13{fill:url(#SVGID_3_)}.st13{fill:url(#SVGID_4_)}.st14{enable-background:new}</style><g id="Wurm_1_"><path id="körper_4_" class="st1" d="M2.3 13.2s4.8-1.3 10.7 8.2 1.3 19.5-.2 31.7-1.2 17.3 1.3 22.2c2.5 4.8 4.3 7.2 6.8 6.8s5.5-3.3 6.2-7.5-1.5-13.3-1-18.5c.5-5.2.5-12.3 5.5-13.7 5-1.3 8 3.7 9.3 8.7s.7 12 2.8 18c2.2 6 5.8 8.8 9 9s7-1.5 8.2-8.3-.7-19.3-2.3-27.8c-1.7-8.5-2.2-22.7 1.8-29s8.5-11.3 16.3-8.8 13.7 6 17.2 11.7.5 7-1.5 7.8c-2 .8-16.7 1.8-19.3 5.5-2.7 3.7-4.5 14.3-4.3 21.2.2 6.8 1.8 16.2-.7 25s-4.5 12.2-8.7 14.5-7.7 3.7-12.2.2-5.3-7.7-8-11.7-5.8-6.8-6.7.3c-.8 7.2-1.5 12.2-5.7 15.7s-11.5 5.5-15.2 2-9.5-11.7-9.5-19.8 2.8-21.2 4.3-28.7 4-12.3 1.5-18.5-4.3-5.8-6.2-11.2.6-5 .6-5z"/><g id="flecken_2_"><path class="st2" d="M8.6 35.2s1.5-1.3 3.2-1.3 3.5 1.2 3.5 1.2l-2.5 16.3s-2.7-3-4.5-1.8c-1.8 1.2-2.8 2.7-2.8 2.7l3.1-17.1zM3.1 65.5s1.5-2 4-2.2 4.3 1.2 4.3 1.2.2 2.2 1.2 4.7 1.8 5 1.8 5-1.5-1-4.2.7-5.8 9.5-5.8 9.5-2.3-6.5-1.8-9.5.5-9.4.5-9.4zM17.9 80.3s-1.8 2-2.5 4.8.5 12 .5 12 5.2 1 7.5-.5 4.7-4.3 4.7-4.3-5.5-3-5.5-5.3.7-5.7.7-5.7-.7.8-2.8.3-2.6-1.3-2.6-1.3zM27.4 72.8s-.3 2 1.3 3.2c1.7 1.2 4.7-.3 4.7-.3l.5-1.3s-4.2-9.3-3.3-14.2c.8-4.8 2-9.5 3.2-11.5s3.3-4.7 3.3-4.7-2.8-3.3-6-1.7c-3.2 1.7-5 8.3-5 11.5 0 3.2 1 8 1.3 12.5.3 4.5 0 6.5 0 6.5zM35.9 74.2s1.8-7.8 3.3-9.8 3.2-2.7 3.2-2.7.7 6 2.3 8.7c1.7 2.7 2.3 3.8 2.3 3.8S44 77 43 79s-1.2 3.3-1.2 3.3-1.7-5.8-3.8-7l-2.1-1.1zM55.1 78.3s.2 2.3 1.8 5.2 5.3 4.2 5.3 4.2 3.5-2.2 4.8-7.2 1.8-11.8 1.8-11.8-2 .7-4.3-.8-3.5-3.5-3.5-3.5 1 4.8-1.5 8.5c-2.4 3.6-4.4 5.4-4.4 5.4zM59.4 43.5s.5 1.7 2.7 3 6.5 1 6.5 1 .7-8.8 1.8-11.8 2.2-5.5 2.2-5.5-4.7-1.3-8-4.8-4-5.8-4-7.7V13s-2.7 8-2.8 12.7c-.2 4.7 0 10.8.7 13.5.6 2.6.9 4.3.9 4.3zM6.4 25.5s1.5-2.7 3-3.3 3.7.2 3.7.2-7-11.2-10.8-9.2c-3.9 2 4.1 12.3 4.1 12.3"/></g><g id="whiter_2_" class="st3"><path id="whitey1_2_" class="st4" d="M4.6 13.3s1.2 6.2 2.7 8.2S11.5 27 11 34.3 10 44 9.3 48.1c-.7 4.2-2.3 9.7-2.7 13-.3 3.3-1.8 12.7-.8 16.8s1.8 9 3.8 11.7 3.2 5 8 4.5 7.8-2.8 9.2-4.7c1.3-1.8 3-6.2 3.7-9.8.7-3.7-.3-7.8 2.7-8.8s5.5.8 7.7 3.8 3 8.2 6.5 11 6.5 3.5 10.2 1.5 6-6.8 7.3-11c1.3-4.2 2.7-7.8 3.7-8.8s1 2.5 1 2.5-3.7 13.5-5.2 15.5-7.8 7-11 6.5-6.5-.7-9.8-6.7-6.7-10.8-8-10.7-3.3 8.8-4.5 13c-1.2 4.2-6.2 9.3-10.8 10.3-4.7 1-11.7-2.8-14.2-8S1.9 75.5 2.9 69.2s4.2-21.3 5.2-25.7 1.8-11.2.2-14.5c-1.7-3.3-5.2-8.2-6.2-11.2s-.8-4 .3-4.8c1-.7 2.2.3 2.2.3"/><path id="whitey2_2_" class="st4" d="M61.4 65.5s2.5 1 3.2-1.7c.7-2.7-2.5-15.5-2.5-17s-.8-10.7-.8-13.5c0-2.8-1.8-10.7-.2-13.5 1.7-2.8 2.2-7 5-9.5S76.8 4 76.8 4 73 2.8 69 4.3s-7 4.7-8.5 8.5-3.2 12.3-3 15.8.5 9.3 1.7 15.8 2.2 10.2 2.2 14.2v6.9z"/></g><g id="flecken_outline_2_"><path class="st5" d="M8.6 35.2s1.5-1.3 3.2-1.3 3.5 1.2 3.5 1.2l-2.5 16.3s-2.7-3-4.5-1.8c-1.8 1.2-2.8 2.7-2.8 2.7l3.1-17.1zM3.1 65.5s1.5-2 4-2.2 4.3 1.2 4.3 1.2.2 2.2 1.2 4.7 1.8 5 1.8 5-1.5-1-4.2.7-5.8 9.5-5.8 9.5-2.3-6.5-1.8-9.5.5-9.4.5-9.4zM17.9 80.3s-1.8 2-2.5 4.8.5 12 .5 12 5.2 1 7.5-.5 4.7-4.3 4.7-4.3-5.5-3-5.5-5.3.7-5.7.7-5.7-.7.8-2.8.3-2.6-1.3-2.6-1.3zM27.4 72.8s-.3 2 1.3 3.2c1.7 1.2 4.7-.3 4.7-.3l.5-1.3s-4.2-9.3-3.3-14.2c.8-4.8 2-9.5 3.2-11.5s3.3-4.7 3.3-4.7-2.8-3.3-6-1.7c-3.2 1.7-5 8.3-5 11.5 0 3.2 1 8 1.3 12.5.3 4.5 0 6.5 0 6.5zM35.9 74.2s1.8-7.8 3.3-9.8 3.2-2.7 3.2-2.7.7 6 2.3 8.7c1.7 2.7 2.3 3.8 2.3 3.8S44 77 43 79s-1.2 3.3-1.2 3.3-1.7-5.8-3.8-7l-2.1-1.1zM55.1 78.3s.2 2.3 1.8 5.2 5.3 4.2 5.3 4.2 3.5-2.2 4.8-7.2 1.8-11.8 1.8-11.8-2 .7-4.3-.8-3.5-3.5-3.5-3.5 1 4.8-1.5 8.5c-2.4 3.6-4.4 5.4-4.4 5.4zM59.4 43.5s.5 1.7 2.7 3 6.5 1 6.5 1 .7-8.8 1.8-11.8 2.2-5.5 2.2-5.5-4.7-1.3-8-4.8-4-5.8-4-7.7V13s-2.7 8-2.8 12.7c-.2 4.7 0 10.8.7 13.5.6 2.6.9 4.3.9 4.3zM6.4 25.5s1.5-2.7 3-3.3 3.7.2 3.7.2-7-11.2-10.8-9.2c-3.9 2 4.1 12.3 4.1 12.3"/></g><path id="mund_2_" class="st6" d="M91.6 16.8s-1.7 5-8.8 5.3c-6.8.3-9.7-3.3-9.7-3.3l-2.2 3 3-4.8"/><path id="körper_5_" class="st7" d="M2.3 13.2s4.8-1.3 10.7 8.2 1.3 19.5-.2 31.7-1.2 17.3 1.3 22.2c2.5 4.8 4.3 7.2 6.8 6.8s5.5-3.3 6.2-7.5-1.5-13.3-1-18.5c.5-5.2.5-12.3 5.5-13.7 5-1.3 8 3.7 9.3 8.7s.7 12 2.8 18c2.2 6 5.8 8.8 9 9s7-1.5 8.2-8.3-.7-19.3-2.3-27.8c-1.7-8.5-2.2-22.7 1.8-29s8.5-11.3 16.3-8.8 13.7 6 17.2 11.7.5 7-1.5 7.8c-2 .8-16.7 1.8-19.3 5.5-2.7 3.7-4.5 14.3-4.3 21.2.2 6.8 1.8 16.2-.7 25s-4.5 12.2-8.7 14.5-7.7 3.7-12.2.2-5.3-7.7-8-11.7-5.8-6.8-6.7.3c-.8 7.2-1.5 12.2-5.7 15.7s-11.5 5.5-15.2 2-9.5-11.7-9.5-19.8 2.8-21.2 4.3-28.7 4-12.3 1.5-18.5-4.3-5.8-6.2-11.2.6-5 .6-5z"/><g id="brille_2_"><path class="st8" d="M69.8 9.5s-9-4-13.2-2.5c-2.3.8-2.8 2.2-2.8 2.2"/><radialGradient id="SVGID_1_" cx="74.941" cy="-197.105" r="5.127" gradientTransform="matrix(1 0 0 -1 0 -187.757)" gradientUnits="userSpaceOnUse"><stop offset="0" stop-color="#fff"/><stop offset=".259" stop-color="#fdfefe"/><stop offset=".411" stop-color="#f4f9fa"/><stop offset=".535" stop-color="#e6f1f4"/><stop offset=".644" stop-color="#d2e5ec"/><stop offset=".744" stop-color="#b8d6e1"/><stop offset=".836" stop-color="#98c3d3"/><stop offset=".921" stop-color="#73aec4"/><stop offset="1" stop-color="#4995b2"/></radialGradient><ellipse class="st9" cx="74.9" cy="9.3" rx="5.2" ry="5"/><radialGradient id="SVGID_2_" cx="84.191" cy="-192.938" r="4.844" gradientTransform="matrix(1 0 0 -1 0 -187.757)" gradientUnits="userSpaceOnUse"><stop offset="0" stop-color="#fff"/><stop offset=".259" stop-color="#fdfefe"/><stop offset=".411" stop-color="#f4f9fa"/><stop offset=".535" stop-color="#e6f1f4"/><stop offset=".644" stop-color="#d2e5ec"/><stop offset=".744" stop-color="#b8d6e1"/><stop offset=".836" stop-color="#98c3d3"/><stop offset=".921" stop-color="#73aec4"/><stop offset="1" stop-color="#4995b2"/></radialGradient><ellipse class="st10" cx="84.2" cy="5.2" rx="5" ry="4.7"/><ellipse class="st11" cx="76.9" cy="10" rx="1" ry=".7"/><ellipse transform="rotate(-23.001 84.119 6.707)" class="st11" cx="84.1" cy="6.7" rx="1" ry=".7"/></g></g></svg>